G04 #@! TF.FileFunction,Copper,L2,Bot,Signal*
%FSLAX46Y46*%
G04 Gerber Fmt 4.6, Leading zero omitted, Abs format (unit mm)*
G04 Created by KiCad (PCBNEW 4.0.0-rc2-stable) date Mon 16 Nov 2015 06:29:13 AM PST*
%MOMM*%
G01*
G04 APERTURE LIST*
%ADD10C,0.100000*%
%ADD11R,1.727200X2.032000*%
%ADD12O,1.727200X2.032000*%
%ADD13C,2.500000*%
%ADD14C,1.100000*%
%ADD15C,1.550000*%
%ADD16C,0.700000*%
%ADD17C,0.500000*%
%ADD18C,0.250000*%
G04 APERTURE END LIST*
D10*
D11*
X122660000Y-50000000D03*
D12*
X120120000Y-50000000D03*
X117580000Y-50000000D03*
X115040000Y-50000000D03*
X112500000Y-50000000D03*
X109960000Y-50000000D03*
X107420000Y-50000000D03*
X104880000Y-50000000D03*
D13*
X100000000Y-50000000D03*
X127000000Y-50000000D03*
X100000000Y-77000000D03*
X127000000Y-77000000D03*
D14*
X100562540Y-65999100D03*
X100562540Y-70999100D03*
D15*
X97862540Y-64999100D03*
X97862540Y-71999100D03*
D16*
X97977816Y-56953761D03*
X106500000Y-53550001D03*
X98500000Y-67000000D03*
X102687560Y-65000000D03*
X111250000Y-73750000D03*
X102500000Y-74750000D03*
X100750000Y-61750000D03*
X112000000Y-79350000D03*
X115250000Y-70000000D03*
X105250000Y-58250000D03*
X105250000Y-56500000D03*
X98500000Y-70000000D03*
X102687560Y-67500000D03*
X115250000Y-58500000D03*
X109500000Y-63500000D03*
X108000000Y-80250000D03*
X129000000Y-80250000D03*
X108000000Y-76500000D03*
X118000000Y-69250000D03*
X129600000Y-49200000D03*
X113750000Y-52749981D03*
X129500000Y-47000000D03*
X106250000Y-59000000D03*
X106250000Y-63500000D03*
X120000000Y-69250000D03*
X120000000Y-77750000D03*
X115349987Y-75250000D03*
X116850021Y-69925020D03*
X106250000Y-70750000D03*
X124000000Y-54000000D03*
X116250000Y-75250000D03*
X119000000Y-69250000D03*
D17*
X116722399Y-53550001D02*
X106500000Y-53550001D01*
X120120000Y-50152400D02*
X116722399Y-53550001D01*
X120120000Y-50000000D02*
X120120000Y-50152400D01*
X98703761Y-56953761D02*
X97977816Y-56953761D01*
X100750000Y-59000000D02*
X98703761Y-56953761D01*
X106500000Y-53550001D02*
X106199999Y-53550001D01*
X106199999Y-53550001D02*
X100750000Y-59000000D01*
X100750000Y-59000000D02*
X99949999Y-59800001D01*
X99949999Y-64168363D02*
X100431637Y-64650001D01*
X99949999Y-59800001D02*
X99949999Y-64168363D01*
X102687560Y-65000000D02*
X102337561Y-64650001D01*
X100431637Y-64650001D02*
X98500000Y-66581638D01*
X102337561Y-64650001D02*
X100431637Y-64650001D01*
X98500000Y-66581638D02*
X98500000Y-67000000D01*
D18*
X112650000Y-72600000D02*
X112400000Y-72600000D01*
X112400000Y-72600000D02*
X111250000Y-73750000D01*
X115250000Y-70000000D02*
X112650000Y-72600000D01*
X111250000Y-73750000D02*
X112000000Y-74500000D01*
X112000000Y-74500000D02*
X112000000Y-79350000D01*
X102500000Y-74750000D02*
X98500000Y-70750000D01*
X98500000Y-70750000D02*
X98500000Y-70000000D01*
D17*
X105250000Y-58250000D02*
X105250000Y-61750000D01*
X105250000Y-61750000D02*
X105250000Y-64937560D01*
X100750000Y-61750000D02*
X105250000Y-61750000D01*
X122660000Y-50000000D02*
X122660000Y-50152400D01*
X122660000Y-50152400D02*
X116312400Y-56500000D01*
X116312400Y-56500000D02*
X105250000Y-56500000D01*
X105250000Y-56500000D02*
X105250000Y-58250000D01*
X105250000Y-64937560D02*
X102687560Y-67500000D01*
X102687560Y-67500000D02*
X101000000Y-67500000D01*
X101000000Y-67500000D02*
X98500000Y-70000000D01*
D18*
X109500000Y-63500000D02*
X110250000Y-63500000D01*
X110250000Y-63500000D02*
X115250000Y-58500000D01*
X129000000Y-80250000D02*
X108000000Y-80250000D01*
X108000000Y-76005026D02*
X108000000Y-76500000D01*
X114755026Y-69250000D02*
X108000000Y-76005026D01*
X118000000Y-69250000D02*
X114755026Y-69250000D01*
X129600000Y-49200000D02*
X129600000Y-48705026D01*
X129319973Y-48424999D02*
X108842601Y-48424999D01*
X129600000Y-48705026D02*
X129319973Y-48424999D01*
X108842601Y-48424999D02*
X107420000Y-49847600D01*
X107420000Y-49847600D02*
X107420000Y-50000000D01*
X110017581Y-52749981D02*
X113750000Y-52749981D01*
X107420000Y-50152400D02*
X110017581Y-52749981D01*
X107420000Y-50000000D02*
X107420000Y-50152400D01*
X129500000Y-47000000D02*
X107727600Y-47000000D01*
X107727600Y-47000000D02*
X104880000Y-49847600D01*
X104880000Y-49847600D02*
X104880000Y-50000000D01*
X106250000Y-63500000D02*
X106250000Y-59000000D01*
X120000000Y-69250000D02*
X120000000Y-77750000D01*
X115349987Y-71425054D02*
X115349987Y-75250000D01*
X116850021Y-69925020D02*
X115349987Y-71425054D01*
X124000000Y-54000000D02*
X123000000Y-54000000D01*
X123000000Y-54000000D02*
X106250000Y-70750000D01*
X119000000Y-69250000D02*
X116250000Y-72000000D01*
X116250000Y-72000000D02*
X116250000Y-75250000D01*
M02*
