M48
;DRILL file {KiCad 4.0.0-rc2-stable} date Mon 16 Nov 2015 06:25:37 AM PST
;FORMAT={-:-/ absolute / inch / decimal}
FMAT,2
INCH,TZ
T1C0.020
T2C0.033
T3C0.040
T4C0.045
T5C0.098
%
G90
G05
M72
T1
X3.8574Y-2.2423
X3.878Y-2.6378
X3.878Y-2.7559
X3.9665Y-2.4311
X4.0354Y-2.9429
X4.0428Y-2.5591
X4.0428Y-2.6575
X4.1437Y-2.2244
X4.1437Y-2.2933
X4.1831Y-2.3228
X4.1831Y-2.5
X4.1831Y-2.7854
X4.1929Y-2.1083
X4.252Y-3.0118
X4.252Y-3.1594
X4.311Y-2.5
X4.3799Y-2.9035
X4.4094Y-3.124
X4.4783Y-2.0768
X4.5374Y-2.3031
X4.5374Y-2.7559
X4.5413Y-2.9626
X4.5768Y-2.9626
X4.6004Y-2.753
X4.6457Y-2.7264
X4.685Y-2.7264
X4.7244Y-2.7264
X4.7244Y-3.061
X4.8819Y-2.126
X5.0787Y-3.1594
X5.0984Y-1.8504
X5.1024Y-1.937
T2
X3.9592Y-2.5984
X3.9592Y-2.7952
T3
X4.1291Y-1.9685
X4.2291Y-1.9685
X4.3291Y-1.9685
X4.4291Y-1.9685
X4.5291Y-1.9685
X4.6291Y-1.9685
X4.7291Y-1.9685
X4.8291Y-1.9685
T4
X3.8529Y-2.559
X3.8529Y-2.8346
T5
X3.937Y-1.9685
X3.937Y-3.0315
X5.Y-1.9685
X5.Y-3.0315
T0
M30
