G04 #@! TF.FileFunction,Copper,L2,Bot,Signal*
%FSLAX46Y46*%
G04 Gerber Fmt 4.6, Leading zero omitted, Abs format (unit mm)*
G04 Created by KiCad (PCBNEW 4.0.0-rc2-stable) date Mon 16 Nov 2015 05:30:53 PM PST*
%MOMM*%
G01*
G04 APERTURE LIST*
%ADD10C,0.100000*%
%ADD11R,1.727200X2.032000*%
%ADD12O,1.727200X2.032000*%
%ADD13C,2.500000*%
%ADD14C,1.100000*%
%ADD15C,1.550000*%
%ADD16C,0.700000*%
%ADD17C,0.500000*%
%ADD18C,0.250000*%
%ADD19C,0.254000*%
G04 APERTURE END LIST*
D10*
D11*
X122660000Y-50000000D03*
D12*
X120120000Y-50000000D03*
X117580000Y-50000000D03*
X115040000Y-50000000D03*
X112500000Y-50000000D03*
X109960000Y-50000000D03*
X107420000Y-50000000D03*
X104880000Y-50000000D03*
D13*
X100000000Y-50000000D03*
X127000000Y-50000000D03*
X100000000Y-77000000D03*
X127000000Y-77000000D03*
D14*
X100562540Y-65999100D03*
X100562540Y-70999100D03*
D15*
X97862540Y-64999100D03*
X97862540Y-71999100D03*
D16*
X97977816Y-56953761D03*
X106500000Y-53550001D03*
X98500000Y-67000000D03*
X102687560Y-65000000D03*
X115000000Y-70400000D03*
X111000000Y-76550000D03*
X97797696Y-55602304D03*
X98000000Y-58500000D03*
X97950000Y-60950000D03*
X109815692Y-55565692D03*
X109800000Y-56450000D03*
X105250000Y-57300000D03*
X102500000Y-74750000D03*
X112000000Y-79350000D03*
X105250000Y-58250000D03*
X105250000Y-56500000D03*
X98500000Y-70000000D03*
X102687560Y-67500000D03*
X115250000Y-58500000D03*
X109500000Y-63500000D03*
X108000000Y-80250000D03*
X129000000Y-80250000D03*
X108000000Y-76500000D03*
X118000000Y-69250000D03*
X129600000Y-49200000D03*
X113750000Y-52749981D03*
X129500000Y-47000000D03*
X106250000Y-59000000D03*
X106250000Y-63500000D03*
X120000000Y-69250000D03*
X120000000Y-77750000D03*
X115349987Y-75250000D03*
X116850021Y-69925020D03*
X106250000Y-70750000D03*
X124000000Y-54000000D03*
X116250000Y-75250000D03*
X119000000Y-69250000D03*
D17*
X116722399Y-53550001D02*
X106500000Y-53550001D01*
X120120000Y-50152400D02*
X116722399Y-53550001D01*
X120120000Y-50000000D02*
X120120000Y-50152400D01*
X98703761Y-56953761D02*
X97977816Y-56953761D01*
X100750000Y-59000000D02*
X98703761Y-56953761D01*
X106500000Y-53550001D02*
X106199999Y-53550001D01*
X106199999Y-53550001D02*
X100750000Y-59000000D01*
X100750000Y-59000000D02*
X99949999Y-59800001D01*
X99949999Y-64168363D02*
X100431637Y-64650001D01*
X99949999Y-59800001D02*
X99949999Y-64168363D01*
X102687560Y-65000000D02*
X102337561Y-64650001D01*
X100431637Y-64650001D02*
X98500000Y-66581638D01*
X102337561Y-64650001D02*
X100431637Y-64650001D01*
X98500000Y-66581638D02*
X98500000Y-67000000D01*
X105250000Y-57300000D02*
X105250000Y-58250000D01*
D18*
X102500000Y-74750000D02*
X98500000Y-70750000D01*
X98500000Y-70750000D02*
X98500000Y-70000000D01*
D17*
X122660000Y-50000000D02*
X122660000Y-50152400D01*
X122660000Y-50152400D02*
X116312400Y-56500000D01*
X116312400Y-56500000D02*
X105250000Y-56500000D01*
X105250000Y-64937560D02*
X102687560Y-67500000D01*
X102687560Y-67500000D02*
X101000000Y-67500000D01*
X101000000Y-67500000D02*
X98500000Y-70000000D01*
D18*
X109500000Y-63500000D02*
X110250000Y-63500000D01*
X110250000Y-63500000D02*
X115250000Y-58500000D01*
X129000000Y-80250000D02*
X108000000Y-80250000D01*
X108000000Y-76005026D02*
X108000000Y-76500000D01*
X114755026Y-69250000D02*
X108000000Y-76005026D01*
X118000000Y-69250000D02*
X114755026Y-69250000D01*
X129600000Y-49200000D02*
X129600000Y-48705026D01*
X129600000Y-48705026D02*
X128569975Y-47675001D01*
X128569975Y-47675001D02*
X108478999Y-47675001D01*
X108478999Y-47675001D02*
X107420000Y-48734000D01*
X107420000Y-48734000D02*
X107420000Y-50000000D01*
X107420000Y-49847600D02*
X107420000Y-50000000D01*
X110017581Y-52749981D02*
X113750000Y-52749981D01*
X107420000Y-50152400D02*
X110017581Y-52749981D01*
X107420000Y-50000000D02*
X107420000Y-50152400D01*
X129500000Y-47000000D02*
X107727600Y-47000000D01*
X107727600Y-47000000D02*
X104880000Y-49847600D01*
X104880000Y-49847600D02*
X104880000Y-50000000D01*
X106250000Y-63500000D02*
X106250000Y-59000000D01*
X120000000Y-69250000D02*
X120000000Y-77750000D01*
X115349987Y-71425054D02*
X115349987Y-75250000D01*
X116850021Y-69925020D02*
X115349987Y-71425054D01*
X124000000Y-54000000D02*
X123000000Y-54000000D01*
X123000000Y-54000000D02*
X106250000Y-70750000D01*
X119000000Y-69250000D02*
X116250000Y-72000000D01*
X116250000Y-72000000D02*
X116250000Y-75250000D01*
D19*
G36*
X135790000Y-53873000D02*
X129000000Y-53873000D01*
X128950590Y-53883006D01*
X128908965Y-53911447D01*
X128881685Y-53953841D01*
X128873000Y-54000000D01*
X128873000Y-73500000D01*
X128883006Y-73549410D01*
X128911447Y-73591035D01*
X128953841Y-73618315D01*
X129000000Y-73627000D01*
X135790000Y-73627000D01*
X135790000Y-80290000D01*
X129984965Y-80290000D01*
X129985170Y-80054931D01*
X129835529Y-79692771D01*
X129558686Y-79415445D01*
X129196788Y-79265172D01*
X128804931Y-79264830D01*
X128442771Y-79414471D01*
X128367110Y-79490000D01*
X108633111Y-79490000D01*
X108558686Y-79415445D01*
X108196788Y-79265172D01*
X107804931Y-79264830D01*
X107442771Y-79414471D01*
X107165445Y-79691314D01*
X107015172Y-80053212D01*
X107014965Y-80290000D01*
X94710000Y-80290000D01*
X94710000Y-77373305D01*
X98114674Y-77373305D01*
X98401043Y-78066372D01*
X98930839Y-78597093D01*
X99623405Y-78884672D01*
X100373305Y-78885326D01*
X101066372Y-78598957D01*
X101597093Y-78069161D01*
X101884672Y-77376595D01*
X101885266Y-76695069D01*
X107014830Y-76695069D01*
X107164471Y-77057229D01*
X107441314Y-77334555D01*
X107803212Y-77484828D01*
X108195069Y-77485170D01*
X108557229Y-77335529D01*
X108834555Y-77058686D01*
X108984828Y-76696788D01*
X108985170Y-76304931D01*
X108923690Y-76156138D01*
X115069828Y-70010000D01*
X115690239Y-70010000D01*
X114812586Y-70887653D01*
X114647839Y-71134215D01*
X114589987Y-71425054D01*
X114589987Y-74616889D01*
X114515432Y-74691314D01*
X114365159Y-75053212D01*
X114364817Y-75445069D01*
X114514458Y-75807229D01*
X114791301Y-76084555D01*
X115153199Y-76234828D01*
X115545056Y-76235170D01*
X115800174Y-76129758D01*
X116053212Y-76234828D01*
X116445069Y-76235170D01*
X116807229Y-76085529D01*
X117084555Y-75808686D01*
X117234828Y-75446788D01*
X117235170Y-75054931D01*
X117085529Y-74692771D01*
X117010000Y-74617110D01*
X117010000Y-72314802D01*
X119089724Y-70235078D01*
X119195069Y-70235170D01*
X119240000Y-70216605D01*
X119240000Y-77116889D01*
X119165445Y-77191314D01*
X119015172Y-77553212D01*
X119014830Y-77945069D01*
X119164471Y-78307229D01*
X119441314Y-78584555D01*
X119803212Y-78734828D01*
X120195069Y-78735170D01*
X120557229Y-78585529D01*
X120834555Y-78308686D01*
X120984828Y-77946788D01*
X120985170Y-77554931D01*
X120910124Y-77373305D01*
X125114674Y-77373305D01*
X125401043Y-78066372D01*
X125930839Y-78597093D01*
X126623405Y-78884672D01*
X127373305Y-78885326D01*
X128066372Y-78598957D01*
X128597093Y-78069161D01*
X128884672Y-77376595D01*
X128885326Y-76626695D01*
X128598957Y-75933628D01*
X128069161Y-75402907D01*
X127376595Y-75115328D01*
X126626695Y-75114674D01*
X125933628Y-75401043D01*
X125402907Y-75930839D01*
X125115328Y-76623405D01*
X125114674Y-77373305D01*
X120910124Y-77373305D01*
X120835529Y-77192771D01*
X120760000Y-77117110D01*
X120760000Y-69883111D01*
X120834555Y-69808686D01*
X120984828Y-69446788D01*
X120985170Y-69054931D01*
X120835529Y-68692771D01*
X120558686Y-68415445D01*
X120196788Y-68265172D01*
X119804931Y-68264830D01*
X119499696Y-68390950D01*
X119196788Y-68265172D01*
X118804931Y-68264830D01*
X118499696Y-68390950D01*
X118196788Y-68265172D01*
X117804931Y-68264830D01*
X117442771Y-68414471D01*
X117367110Y-68490000D01*
X114755026Y-68490000D01*
X114464186Y-68547852D01*
X114217625Y-68712599D01*
X107462599Y-75467625D01*
X107297852Y-75714187D01*
X107274285Y-75832663D01*
X107165445Y-75941314D01*
X107015172Y-76303212D01*
X107014830Y-76695069D01*
X101885266Y-76695069D01*
X101885326Y-76626695D01*
X101598957Y-75933628D01*
X101069161Y-75402907D01*
X100376595Y-75115328D01*
X99626695Y-75114674D01*
X98933628Y-75401043D01*
X98402907Y-75930839D01*
X98115328Y-76623405D01*
X98114674Y-77373305D01*
X94710000Y-77373305D01*
X94710000Y-72278336D01*
X96452295Y-72278336D01*
X96666503Y-72796758D01*
X97062796Y-73193743D01*
X97580843Y-73408855D01*
X98141776Y-73409345D01*
X98660198Y-73195137D01*
X99057183Y-72798844D01*
X99272295Y-72280797D01*
X99272785Y-71719864D01*
X99071938Y-71233777D01*
X99377334Y-71233777D01*
X99557360Y-71669472D01*
X99890415Y-72003109D01*
X100325795Y-72183894D01*
X100797217Y-72184306D01*
X101232912Y-72004280D01*
X101566549Y-71671225D01*
X101747334Y-71235845D01*
X101747588Y-70945069D01*
X105264830Y-70945069D01*
X105414471Y-71307229D01*
X105691314Y-71584555D01*
X106053212Y-71734828D01*
X106445069Y-71735170D01*
X106807229Y-71585529D01*
X107084555Y-71308686D01*
X107234828Y-70946788D01*
X107234921Y-70839881D01*
X123314802Y-54760000D01*
X123366889Y-54760000D01*
X123441314Y-54834555D01*
X123803212Y-54984828D01*
X124195069Y-54985170D01*
X124557229Y-54835529D01*
X124834555Y-54558686D01*
X124984828Y-54196788D01*
X124985170Y-53804931D01*
X124835529Y-53442771D01*
X124558686Y-53165445D01*
X124196788Y-53015172D01*
X123804931Y-53014830D01*
X123442771Y-53164471D01*
X123367110Y-53240000D01*
X123000000Y-53240000D01*
X122709160Y-53297852D01*
X122462599Y-53462599D01*
X106160276Y-69764922D01*
X106054931Y-69764830D01*
X105692771Y-69914471D01*
X105415445Y-70191314D01*
X105265172Y-70553212D01*
X105264830Y-70945069D01*
X101747588Y-70945069D01*
X101747746Y-70764423D01*
X101567720Y-70328728D01*
X101234665Y-69995091D01*
X100799285Y-69814306D01*
X100327863Y-69813894D01*
X99892168Y-69993920D01*
X99558531Y-70326975D01*
X99377746Y-70762355D01*
X99377334Y-71233777D01*
X99071938Y-71233777D01*
X99058577Y-71201442D01*
X98662284Y-70804457D01*
X98144237Y-70589345D01*
X97583304Y-70588855D01*
X97064882Y-70803063D01*
X96667897Y-71199356D01*
X96452785Y-71717403D01*
X96452295Y-72278336D01*
X94710000Y-72278336D01*
X94710000Y-65278336D01*
X96452295Y-65278336D01*
X96666503Y-65796758D01*
X97062796Y-66193743D01*
X97580843Y-66408855D01*
X97649357Y-66408915D01*
X97622191Y-66545481D01*
X97515172Y-66803212D01*
X97514830Y-67195069D01*
X97664471Y-67557229D01*
X97941314Y-67834555D01*
X98303212Y-67984828D01*
X98695069Y-67985170D01*
X99057229Y-67835529D01*
X99334555Y-67558686D01*
X99484828Y-67196788D01*
X99485132Y-66848085D01*
X99610506Y-66722711D01*
X99890415Y-67003109D01*
X100325795Y-67183894D01*
X100797217Y-67184306D01*
X101232912Y-67004280D01*
X101566549Y-66671225D01*
X101747334Y-66235845D01*
X101747746Y-65764423D01*
X101652951Y-65535001D01*
X101842847Y-65535001D01*
X101852031Y-65557229D01*
X102128874Y-65834555D01*
X102490772Y-65984828D01*
X102882629Y-65985170D01*
X103244789Y-65835529D01*
X103522115Y-65558686D01*
X103672388Y-65196788D01*
X103672730Y-64804931D01*
X103523089Y-64442771D01*
X103246246Y-64165445D01*
X103003993Y-64064853D01*
X102963351Y-64024211D01*
X102949311Y-64014830D01*
X102676236Y-63832368D01*
X102620045Y-63821191D01*
X102337561Y-63765000D01*
X102337556Y-63765001D01*
X100834999Y-63765001D01*
X100834999Y-60166581D01*
X101375787Y-59625792D01*
X101375790Y-59625790D01*
X101806510Y-59195069D01*
X105264830Y-59195069D01*
X105414471Y-59557229D01*
X105490000Y-59632890D01*
X105490000Y-62866889D01*
X105415445Y-62941314D01*
X105265172Y-63303212D01*
X105264830Y-63695069D01*
X105414471Y-64057229D01*
X105691314Y-64334555D01*
X106053212Y-64484828D01*
X106445069Y-64485170D01*
X106807229Y-64335529D01*
X107084555Y-64058686D01*
X107234828Y-63696788D01*
X107234829Y-63695069D01*
X108514830Y-63695069D01*
X108664471Y-64057229D01*
X108941314Y-64334555D01*
X109303212Y-64484828D01*
X109695069Y-64485170D01*
X110057229Y-64335529D01*
X110132890Y-64260000D01*
X110250000Y-64260000D01*
X110540839Y-64202148D01*
X110787401Y-64037401D01*
X115339724Y-59485078D01*
X115445069Y-59485170D01*
X115807229Y-59335529D01*
X116084555Y-59058686D01*
X116234828Y-58696788D01*
X116235170Y-58304931D01*
X116085529Y-57942771D01*
X115808686Y-57665445D01*
X115446788Y-57515172D01*
X115054931Y-57514830D01*
X114692771Y-57664471D01*
X114415445Y-57941314D01*
X114265172Y-58303212D01*
X114265079Y-58410119D01*
X110024110Y-62651088D01*
X109696788Y-62515172D01*
X109304931Y-62514830D01*
X108942771Y-62664471D01*
X108665445Y-62941314D01*
X108515172Y-63303212D01*
X108514830Y-63695069D01*
X107234829Y-63695069D01*
X107235170Y-63304931D01*
X107085529Y-62942771D01*
X107010000Y-62867110D01*
X107010000Y-59633111D01*
X107084555Y-59558686D01*
X107234828Y-59196788D01*
X107235170Y-58804931D01*
X107085529Y-58442771D01*
X106808686Y-58165445D01*
X106446788Y-58015172D01*
X106054931Y-58014830D01*
X105692771Y-58164471D01*
X105415445Y-58441314D01*
X105265172Y-58803212D01*
X105264830Y-59195069D01*
X101806510Y-59195069D01*
X106466607Y-54534972D01*
X106695069Y-54535171D01*
X106937500Y-54435001D01*
X116722394Y-54435001D01*
X116722399Y-54435002D01*
X117004883Y-54378811D01*
X117061074Y-54367634D01*
X117348189Y-54175791D01*
X117348190Y-54175790D01*
X119886984Y-51636995D01*
X120120000Y-51683345D01*
X120693489Y-51569271D01*
X121179670Y-51244415D01*
X121194500Y-51222220D01*
X121258073Y-51375698D01*
X121436701Y-51554327D01*
X121670090Y-51651000D01*
X122374250Y-51651000D01*
X122533000Y-51492250D01*
X122533000Y-50127000D01*
X122787000Y-50127000D01*
X122787000Y-51492250D01*
X122945750Y-51651000D01*
X123649910Y-51651000D01*
X123883299Y-51554327D01*
X124061927Y-51375698D01*
X124158600Y-51142309D01*
X124158600Y-50285750D01*
X123999850Y-50127000D01*
X122787000Y-50127000D01*
X122533000Y-50127000D01*
X122513000Y-50127000D01*
X122513000Y-49873000D01*
X122533000Y-49873000D01*
X122533000Y-49853000D01*
X122787000Y-49853000D01*
X122787000Y-49873000D01*
X123999850Y-49873000D01*
X124158600Y-49714250D01*
X124158600Y-48857691D01*
X124061927Y-48624302D01*
X123883299Y-48445673D01*
X123857535Y-48435001D01*
X125899611Y-48435001D01*
X125402907Y-48930839D01*
X125115328Y-49623405D01*
X125114674Y-50373305D01*
X125401043Y-51066372D01*
X125930839Y-51597093D01*
X126623405Y-51884672D01*
X127373305Y-51885326D01*
X128066372Y-51598957D01*
X128597093Y-51069161D01*
X128884672Y-50376595D01*
X128885107Y-49878075D01*
X129041314Y-50034555D01*
X129403212Y-50184828D01*
X129795069Y-50185170D01*
X130157229Y-50035529D01*
X130434555Y-49758686D01*
X130584828Y-49396788D01*
X130585170Y-49004931D01*
X130435529Y-48642771D01*
X130325740Y-48532790D01*
X130308411Y-48445673D01*
X130302148Y-48414186D01*
X130137401Y-48167625D01*
X129878963Y-47909187D01*
X130057229Y-47835529D01*
X130334555Y-47558686D01*
X130484828Y-47196788D01*
X130485170Y-46804931D01*
X130335529Y-46442771D01*
X130058686Y-46165445D01*
X129696788Y-46015172D01*
X129304931Y-46014830D01*
X128942771Y-46164471D01*
X128867110Y-46240000D01*
X107727600Y-46240000D01*
X107436761Y-46297852D01*
X107190199Y-46462599D01*
X105260464Y-48392334D01*
X104880000Y-48316655D01*
X104306511Y-48430729D01*
X103820330Y-48755585D01*
X103495474Y-49241766D01*
X103381400Y-49815255D01*
X103381400Y-50184745D01*
X103495474Y-50758234D01*
X103820330Y-51244415D01*
X104306511Y-51569271D01*
X104880000Y-51683345D01*
X105453489Y-51569271D01*
X105939670Y-51244415D01*
X106150000Y-50929634D01*
X106360330Y-51244415D01*
X106846511Y-51569271D01*
X107420000Y-51683345D01*
X107800464Y-51607666D01*
X108857799Y-52665001D01*
X106937201Y-52665001D01*
X106696788Y-52565173D01*
X106304931Y-52564831D01*
X105942771Y-52714472D01*
X105940651Y-52716588D01*
X105861325Y-52732367D01*
X105861323Y-52732368D01*
X105861324Y-52732368D01*
X105574209Y-52924211D01*
X105574207Y-52924214D01*
X100750000Y-57748420D01*
X99329551Y-56327971D01*
X99042436Y-56136128D01*
X98957364Y-56119206D01*
X98703761Y-56068760D01*
X98703756Y-56068761D01*
X98415017Y-56068761D01*
X98174604Y-55968933D01*
X97782747Y-55968591D01*
X97420587Y-56118232D01*
X97143261Y-56395075D01*
X96992988Y-56756973D01*
X96992646Y-57148830D01*
X97142287Y-57510990D01*
X97419130Y-57788316D01*
X97781028Y-57938589D01*
X98172885Y-57938931D01*
X98360026Y-57861606D01*
X99498420Y-59000000D01*
X99324209Y-59174211D01*
X99132366Y-59461326D01*
X99132366Y-59461327D01*
X99064998Y-59800001D01*
X99064999Y-59800006D01*
X99064999Y-64168358D01*
X99064998Y-64168363D01*
X99083647Y-64262116D01*
X99058577Y-64201442D01*
X98662284Y-63804457D01*
X98144237Y-63589345D01*
X97583304Y-63588855D01*
X97064882Y-63803063D01*
X96667897Y-64199356D01*
X96452785Y-64717403D01*
X96452295Y-65278336D01*
X94710000Y-65278336D01*
X94710000Y-50373305D01*
X98114674Y-50373305D01*
X98401043Y-51066372D01*
X98930839Y-51597093D01*
X99623405Y-51884672D01*
X100373305Y-51885326D01*
X101066372Y-51598957D01*
X101597093Y-51069161D01*
X101884672Y-50376595D01*
X101885326Y-49626695D01*
X101598957Y-48933628D01*
X101069161Y-48402907D01*
X100376595Y-48115328D01*
X99626695Y-48114674D01*
X98933628Y-48401043D01*
X98402907Y-48930839D01*
X98115328Y-49623405D01*
X98114674Y-50373305D01*
X94710000Y-50373305D01*
X94710000Y-45710000D01*
X135790000Y-45710000D01*
X135790000Y-53873000D01*
X135790000Y-53873000D01*
G37*
X135790000Y-53873000D02*
X129000000Y-53873000D01*
X128950590Y-53883006D01*
X128908965Y-53911447D01*
X128881685Y-53953841D01*
X128873000Y-54000000D01*
X128873000Y-73500000D01*
X128883006Y-73549410D01*
X128911447Y-73591035D01*
X128953841Y-73618315D01*
X129000000Y-73627000D01*
X135790000Y-73627000D01*
X135790000Y-80290000D01*
X129984965Y-80290000D01*
X129985170Y-80054931D01*
X129835529Y-79692771D01*
X129558686Y-79415445D01*
X129196788Y-79265172D01*
X128804931Y-79264830D01*
X128442771Y-79414471D01*
X128367110Y-79490000D01*
X108633111Y-79490000D01*
X108558686Y-79415445D01*
X108196788Y-79265172D01*
X107804931Y-79264830D01*
X107442771Y-79414471D01*
X107165445Y-79691314D01*
X107015172Y-80053212D01*
X107014965Y-80290000D01*
X94710000Y-80290000D01*
X94710000Y-77373305D01*
X98114674Y-77373305D01*
X98401043Y-78066372D01*
X98930839Y-78597093D01*
X99623405Y-78884672D01*
X100373305Y-78885326D01*
X101066372Y-78598957D01*
X101597093Y-78069161D01*
X101884672Y-77376595D01*
X101885266Y-76695069D01*
X107014830Y-76695069D01*
X107164471Y-77057229D01*
X107441314Y-77334555D01*
X107803212Y-77484828D01*
X108195069Y-77485170D01*
X108557229Y-77335529D01*
X108834555Y-77058686D01*
X108984828Y-76696788D01*
X108985170Y-76304931D01*
X108923690Y-76156138D01*
X115069828Y-70010000D01*
X115690239Y-70010000D01*
X114812586Y-70887653D01*
X114647839Y-71134215D01*
X114589987Y-71425054D01*
X114589987Y-74616889D01*
X114515432Y-74691314D01*
X114365159Y-75053212D01*
X114364817Y-75445069D01*
X114514458Y-75807229D01*
X114791301Y-76084555D01*
X115153199Y-76234828D01*
X115545056Y-76235170D01*
X115800174Y-76129758D01*
X116053212Y-76234828D01*
X116445069Y-76235170D01*
X116807229Y-76085529D01*
X117084555Y-75808686D01*
X117234828Y-75446788D01*
X117235170Y-75054931D01*
X117085529Y-74692771D01*
X117010000Y-74617110D01*
X117010000Y-72314802D01*
X119089724Y-70235078D01*
X119195069Y-70235170D01*
X119240000Y-70216605D01*
X119240000Y-77116889D01*
X119165445Y-77191314D01*
X119015172Y-77553212D01*
X119014830Y-77945069D01*
X119164471Y-78307229D01*
X119441314Y-78584555D01*
X119803212Y-78734828D01*
X120195069Y-78735170D01*
X120557229Y-78585529D01*
X120834555Y-78308686D01*
X120984828Y-77946788D01*
X120985170Y-77554931D01*
X120910124Y-77373305D01*
X125114674Y-77373305D01*
X125401043Y-78066372D01*
X125930839Y-78597093D01*
X126623405Y-78884672D01*
X127373305Y-78885326D01*
X128066372Y-78598957D01*
X128597093Y-78069161D01*
X128884672Y-77376595D01*
X128885326Y-76626695D01*
X128598957Y-75933628D01*
X128069161Y-75402907D01*
X127376595Y-75115328D01*
X126626695Y-75114674D01*
X125933628Y-75401043D01*
X125402907Y-75930839D01*
X125115328Y-76623405D01*
X125114674Y-77373305D01*
X120910124Y-77373305D01*
X120835529Y-77192771D01*
X120760000Y-77117110D01*
X120760000Y-69883111D01*
X120834555Y-69808686D01*
X120984828Y-69446788D01*
X120985170Y-69054931D01*
X120835529Y-68692771D01*
X120558686Y-68415445D01*
X120196788Y-68265172D01*
X119804931Y-68264830D01*
X119499696Y-68390950D01*
X119196788Y-68265172D01*
X118804931Y-68264830D01*
X118499696Y-68390950D01*
X118196788Y-68265172D01*
X117804931Y-68264830D01*
X117442771Y-68414471D01*
X117367110Y-68490000D01*
X114755026Y-68490000D01*
X114464186Y-68547852D01*
X114217625Y-68712599D01*
X107462599Y-75467625D01*
X107297852Y-75714187D01*
X107274285Y-75832663D01*
X107165445Y-75941314D01*
X107015172Y-76303212D01*
X107014830Y-76695069D01*
X101885266Y-76695069D01*
X101885326Y-76626695D01*
X101598957Y-75933628D01*
X101069161Y-75402907D01*
X100376595Y-75115328D01*
X99626695Y-75114674D01*
X98933628Y-75401043D01*
X98402907Y-75930839D01*
X98115328Y-76623405D01*
X98114674Y-77373305D01*
X94710000Y-77373305D01*
X94710000Y-72278336D01*
X96452295Y-72278336D01*
X96666503Y-72796758D01*
X97062796Y-73193743D01*
X97580843Y-73408855D01*
X98141776Y-73409345D01*
X98660198Y-73195137D01*
X99057183Y-72798844D01*
X99272295Y-72280797D01*
X99272785Y-71719864D01*
X99071938Y-71233777D01*
X99377334Y-71233777D01*
X99557360Y-71669472D01*
X99890415Y-72003109D01*
X100325795Y-72183894D01*
X100797217Y-72184306D01*
X101232912Y-72004280D01*
X101566549Y-71671225D01*
X101747334Y-71235845D01*
X101747588Y-70945069D01*
X105264830Y-70945069D01*
X105414471Y-71307229D01*
X105691314Y-71584555D01*
X106053212Y-71734828D01*
X106445069Y-71735170D01*
X106807229Y-71585529D01*
X107084555Y-71308686D01*
X107234828Y-70946788D01*
X107234921Y-70839881D01*
X123314802Y-54760000D01*
X123366889Y-54760000D01*
X123441314Y-54834555D01*
X123803212Y-54984828D01*
X124195069Y-54985170D01*
X124557229Y-54835529D01*
X124834555Y-54558686D01*
X124984828Y-54196788D01*
X124985170Y-53804931D01*
X124835529Y-53442771D01*
X124558686Y-53165445D01*
X124196788Y-53015172D01*
X123804931Y-53014830D01*
X123442771Y-53164471D01*
X123367110Y-53240000D01*
X123000000Y-53240000D01*
X122709160Y-53297852D01*
X122462599Y-53462599D01*
X106160276Y-69764922D01*
X106054931Y-69764830D01*
X105692771Y-69914471D01*
X105415445Y-70191314D01*
X105265172Y-70553212D01*
X105264830Y-70945069D01*
X101747588Y-70945069D01*
X101747746Y-70764423D01*
X101567720Y-70328728D01*
X101234665Y-69995091D01*
X100799285Y-69814306D01*
X100327863Y-69813894D01*
X99892168Y-69993920D01*
X99558531Y-70326975D01*
X99377746Y-70762355D01*
X99377334Y-71233777D01*
X99071938Y-71233777D01*
X99058577Y-71201442D01*
X98662284Y-70804457D01*
X98144237Y-70589345D01*
X97583304Y-70588855D01*
X97064882Y-70803063D01*
X96667897Y-71199356D01*
X96452785Y-71717403D01*
X96452295Y-72278336D01*
X94710000Y-72278336D01*
X94710000Y-65278336D01*
X96452295Y-65278336D01*
X96666503Y-65796758D01*
X97062796Y-66193743D01*
X97580843Y-66408855D01*
X97649357Y-66408915D01*
X97622191Y-66545481D01*
X97515172Y-66803212D01*
X97514830Y-67195069D01*
X97664471Y-67557229D01*
X97941314Y-67834555D01*
X98303212Y-67984828D01*
X98695069Y-67985170D01*
X99057229Y-67835529D01*
X99334555Y-67558686D01*
X99484828Y-67196788D01*
X99485132Y-66848085D01*
X99610506Y-66722711D01*
X99890415Y-67003109D01*
X100325795Y-67183894D01*
X100797217Y-67184306D01*
X101232912Y-67004280D01*
X101566549Y-66671225D01*
X101747334Y-66235845D01*
X101747746Y-65764423D01*
X101652951Y-65535001D01*
X101842847Y-65535001D01*
X101852031Y-65557229D01*
X102128874Y-65834555D01*
X102490772Y-65984828D01*
X102882629Y-65985170D01*
X103244789Y-65835529D01*
X103522115Y-65558686D01*
X103672388Y-65196788D01*
X103672730Y-64804931D01*
X103523089Y-64442771D01*
X103246246Y-64165445D01*
X103003993Y-64064853D01*
X102963351Y-64024211D01*
X102949311Y-64014830D01*
X102676236Y-63832368D01*
X102620045Y-63821191D01*
X102337561Y-63765000D01*
X102337556Y-63765001D01*
X100834999Y-63765001D01*
X100834999Y-60166581D01*
X101375787Y-59625792D01*
X101375790Y-59625790D01*
X101806510Y-59195069D01*
X105264830Y-59195069D01*
X105414471Y-59557229D01*
X105490000Y-59632890D01*
X105490000Y-62866889D01*
X105415445Y-62941314D01*
X105265172Y-63303212D01*
X105264830Y-63695069D01*
X105414471Y-64057229D01*
X105691314Y-64334555D01*
X106053212Y-64484828D01*
X106445069Y-64485170D01*
X106807229Y-64335529D01*
X107084555Y-64058686D01*
X107234828Y-63696788D01*
X107234829Y-63695069D01*
X108514830Y-63695069D01*
X108664471Y-64057229D01*
X108941314Y-64334555D01*
X109303212Y-64484828D01*
X109695069Y-64485170D01*
X110057229Y-64335529D01*
X110132890Y-64260000D01*
X110250000Y-64260000D01*
X110540839Y-64202148D01*
X110787401Y-64037401D01*
X115339724Y-59485078D01*
X115445069Y-59485170D01*
X115807229Y-59335529D01*
X116084555Y-59058686D01*
X116234828Y-58696788D01*
X116235170Y-58304931D01*
X116085529Y-57942771D01*
X115808686Y-57665445D01*
X115446788Y-57515172D01*
X115054931Y-57514830D01*
X114692771Y-57664471D01*
X114415445Y-57941314D01*
X114265172Y-58303212D01*
X114265079Y-58410119D01*
X110024110Y-62651088D01*
X109696788Y-62515172D01*
X109304931Y-62514830D01*
X108942771Y-62664471D01*
X108665445Y-62941314D01*
X108515172Y-63303212D01*
X108514830Y-63695069D01*
X107234829Y-63695069D01*
X107235170Y-63304931D01*
X107085529Y-62942771D01*
X107010000Y-62867110D01*
X107010000Y-59633111D01*
X107084555Y-59558686D01*
X107234828Y-59196788D01*
X107235170Y-58804931D01*
X107085529Y-58442771D01*
X106808686Y-58165445D01*
X106446788Y-58015172D01*
X106054931Y-58014830D01*
X105692771Y-58164471D01*
X105415445Y-58441314D01*
X105265172Y-58803212D01*
X105264830Y-59195069D01*
X101806510Y-59195069D01*
X106466607Y-54534972D01*
X106695069Y-54535171D01*
X106937500Y-54435001D01*
X116722394Y-54435001D01*
X116722399Y-54435002D01*
X117004883Y-54378811D01*
X117061074Y-54367634D01*
X117348189Y-54175791D01*
X117348190Y-54175790D01*
X119886984Y-51636995D01*
X120120000Y-51683345D01*
X120693489Y-51569271D01*
X121179670Y-51244415D01*
X121194500Y-51222220D01*
X121258073Y-51375698D01*
X121436701Y-51554327D01*
X121670090Y-51651000D01*
X122374250Y-51651000D01*
X122533000Y-51492250D01*
X122533000Y-50127000D01*
X122787000Y-50127000D01*
X122787000Y-51492250D01*
X122945750Y-51651000D01*
X123649910Y-51651000D01*
X123883299Y-51554327D01*
X124061927Y-51375698D01*
X124158600Y-51142309D01*
X124158600Y-50285750D01*
X123999850Y-50127000D01*
X122787000Y-50127000D01*
X122533000Y-50127000D01*
X122513000Y-50127000D01*
X122513000Y-49873000D01*
X122533000Y-49873000D01*
X122533000Y-49853000D01*
X122787000Y-49853000D01*
X122787000Y-49873000D01*
X123999850Y-49873000D01*
X124158600Y-49714250D01*
X124158600Y-48857691D01*
X124061927Y-48624302D01*
X123883299Y-48445673D01*
X123857535Y-48435001D01*
X125899611Y-48435001D01*
X125402907Y-48930839D01*
X125115328Y-49623405D01*
X125114674Y-50373305D01*
X125401043Y-51066372D01*
X125930839Y-51597093D01*
X126623405Y-51884672D01*
X127373305Y-51885326D01*
X128066372Y-51598957D01*
X128597093Y-51069161D01*
X128884672Y-50376595D01*
X128885107Y-49878075D01*
X129041314Y-50034555D01*
X129403212Y-50184828D01*
X129795069Y-50185170D01*
X130157229Y-50035529D01*
X130434555Y-49758686D01*
X130584828Y-49396788D01*
X130585170Y-49004931D01*
X130435529Y-48642771D01*
X130325740Y-48532790D01*
X130308411Y-48445673D01*
X130302148Y-48414186D01*
X130137401Y-48167625D01*
X129878963Y-47909187D01*
X130057229Y-47835529D01*
X130334555Y-47558686D01*
X130484828Y-47196788D01*
X130485170Y-46804931D01*
X130335529Y-46442771D01*
X130058686Y-46165445D01*
X129696788Y-46015172D01*
X129304931Y-46014830D01*
X128942771Y-46164471D01*
X128867110Y-46240000D01*
X107727600Y-46240000D01*
X107436761Y-46297852D01*
X107190199Y-46462599D01*
X105260464Y-48392334D01*
X104880000Y-48316655D01*
X104306511Y-48430729D01*
X103820330Y-48755585D01*
X103495474Y-49241766D01*
X103381400Y-49815255D01*
X103381400Y-50184745D01*
X103495474Y-50758234D01*
X103820330Y-51244415D01*
X104306511Y-51569271D01*
X104880000Y-51683345D01*
X105453489Y-51569271D01*
X105939670Y-51244415D01*
X106150000Y-50929634D01*
X106360330Y-51244415D01*
X106846511Y-51569271D01*
X107420000Y-51683345D01*
X107800464Y-51607666D01*
X108857799Y-52665001D01*
X106937201Y-52665001D01*
X106696788Y-52565173D01*
X106304931Y-52564831D01*
X105942771Y-52714472D01*
X105940651Y-52716588D01*
X105861325Y-52732367D01*
X105861323Y-52732368D01*
X105861324Y-52732368D01*
X105574209Y-52924211D01*
X105574207Y-52924214D01*
X100750000Y-57748420D01*
X99329551Y-56327971D01*
X99042436Y-56136128D01*
X98957364Y-56119206D01*
X98703761Y-56068760D01*
X98703756Y-56068761D01*
X98415017Y-56068761D01*
X98174604Y-55968933D01*
X97782747Y-55968591D01*
X97420587Y-56118232D01*
X97143261Y-56395075D01*
X96992988Y-56756973D01*
X96992646Y-57148830D01*
X97142287Y-57510990D01*
X97419130Y-57788316D01*
X97781028Y-57938589D01*
X98172885Y-57938931D01*
X98360026Y-57861606D01*
X99498420Y-59000000D01*
X99324209Y-59174211D01*
X99132366Y-59461326D01*
X99132366Y-59461327D01*
X99064998Y-59800001D01*
X99064999Y-59800006D01*
X99064999Y-64168358D01*
X99064998Y-64168363D01*
X99083647Y-64262116D01*
X99058577Y-64201442D01*
X98662284Y-63804457D01*
X98144237Y-63589345D01*
X97583304Y-63588855D01*
X97064882Y-63803063D01*
X96667897Y-64199356D01*
X96452785Y-64717403D01*
X96452295Y-65278336D01*
X94710000Y-65278336D01*
X94710000Y-50373305D01*
X98114674Y-50373305D01*
X98401043Y-51066372D01*
X98930839Y-51597093D01*
X99623405Y-51884672D01*
X100373305Y-51885326D01*
X101066372Y-51598957D01*
X101597093Y-51069161D01*
X101884672Y-50376595D01*
X101885326Y-49626695D01*
X101598957Y-48933628D01*
X101069161Y-48402907D01*
X100376595Y-48115328D01*
X99626695Y-48114674D01*
X98933628Y-48401043D01*
X98402907Y-48930839D01*
X98115328Y-49623405D01*
X98114674Y-50373305D01*
X94710000Y-50373305D01*
X94710000Y-45710000D01*
X135790000Y-45710000D01*
X135790000Y-53873000D01*
M02*
