G04 #@! TF.FileFunction,Legend,Bot*
%FSLAX46Y46*%
G04 Gerber Fmt 4.6, Leading zero omitted, Abs format (unit mm)*
G04 Created by KiCad (PCBNEW 4.0.0-rc2-stable) date Mon 16 Nov 2015 05:30:53 PM PST*
%MOMM*%
G01*
G04 APERTURE LIST*
%ADD10C,0.100000*%
%ADD11C,0.200000*%
%ADD12C,0.010000*%
%ADD13C,0.150000*%
G04 APERTURE END LIST*
D10*
D11*
X107588095Y-54157619D02*
X107588095Y-53057619D01*
X106907142Y-54157619D02*
X107011904Y-54105238D01*
X107064285Y-54052857D01*
X107116666Y-53948095D01*
X107116666Y-53633810D01*
X107064285Y-53529048D01*
X107011904Y-53476667D01*
X106907142Y-53424286D01*
X106750000Y-53424286D01*
X106645238Y-53476667D01*
X106592857Y-53529048D01*
X106540476Y-53633810D01*
X106540476Y-53948095D01*
X106592857Y-54052857D01*
X106645238Y-54105238D01*
X106750000Y-54157619D01*
X106907142Y-54157619D01*
X106226190Y-53057619D02*
X105597619Y-53057619D01*
X105911904Y-54157619D02*
X105911904Y-53057619D01*
X104497619Y-53057619D02*
X104235714Y-54157619D01*
X104026191Y-53371905D01*
X103816667Y-54157619D01*
X103554762Y-53057619D01*
X103135714Y-54157619D02*
X103135714Y-53424286D01*
X103135714Y-53057619D02*
X103188095Y-53110000D01*
X103135714Y-53162381D01*
X103083333Y-53110000D01*
X103135714Y-53057619D01*
X103135714Y-53162381D01*
X102140476Y-54157619D02*
X102140476Y-53057619D01*
X102140476Y-54105238D02*
X102245238Y-54157619D01*
X102454761Y-54157619D01*
X102559523Y-54105238D01*
X102611904Y-54052857D01*
X102664285Y-53948095D01*
X102664285Y-53633810D01*
X102611904Y-53529048D01*
X102559523Y-53476667D01*
X102454761Y-53424286D01*
X102245238Y-53424286D01*
X102140476Y-53476667D01*
X101145238Y-53424286D02*
X101145238Y-54314762D01*
X101197619Y-54419524D01*
X101250000Y-54471905D01*
X101354761Y-54524286D01*
X101511904Y-54524286D01*
X101616666Y-54471905D01*
X101145238Y-54105238D02*
X101250000Y-54157619D01*
X101459523Y-54157619D01*
X101564285Y-54105238D01*
X101616666Y-54052857D01*
X101669047Y-53948095D01*
X101669047Y-53633810D01*
X101616666Y-53529048D01*
X101564285Y-53476667D01*
X101459523Y-53424286D01*
X101250000Y-53424286D01*
X101145238Y-53476667D01*
X100202381Y-54105238D02*
X100307143Y-54157619D01*
X100516666Y-54157619D01*
X100621428Y-54105238D01*
X100673809Y-54000476D01*
X100673809Y-53581429D01*
X100621428Y-53476667D01*
X100516666Y-53424286D01*
X100307143Y-53424286D01*
X100202381Y-53476667D01*
X100150000Y-53581429D01*
X100150000Y-53686190D01*
X100673809Y-53790952D01*
X99835714Y-53424286D02*
X99416666Y-53424286D01*
X99678571Y-53057619D02*
X99678571Y-54000476D01*
X99626190Y-54105238D01*
X99521428Y-54157619D01*
X99416666Y-54157619D01*
X106959524Y-55897619D02*
X107326190Y-55373810D01*
X107588095Y-55897619D02*
X107588095Y-54797619D01*
X107169048Y-54797619D01*
X107064286Y-54850000D01*
X107011905Y-54902381D01*
X106959524Y-55007143D01*
X106959524Y-55164286D01*
X107011905Y-55269048D01*
X107064286Y-55321429D01*
X107169048Y-55373810D01*
X107588095Y-55373810D01*
X106592857Y-55164286D02*
X106330952Y-55897619D01*
X106069048Y-55164286D02*
X106330952Y-55897619D01*
X106435714Y-56159524D01*
X106488095Y-56211905D01*
X106592857Y-56264286D01*
X105178572Y-55897619D02*
X105178572Y-55321429D01*
X105230953Y-55216667D01*
X105335715Y-55164286D01*
X105545238Y-55164286D01*
X105650000Y-55216667D01*
X105178572Y-55845238D02*
X105283334Y-55897619D01*
X105545238Y-55897619D01*
X105650000Y-55845238D01*
X105702381Y-55740476D01*
X105702381Y-55635714D01*
X105650000Y-55530952D01*
X105545238Y-55478571D01*
X105283334Y-55478571D01*
X105178572Y-55426190D01*
X104654762Y-55164286D02*
X104654762Y-55897619D01*
X104654762Y-55269048D02*
X104602381Y-55216667D01*
X104497619Y-55164286D01*
X104340477Y-55164286D01*
X104235715Y-55216667D01*
X104183334Y-55321429D01*
X104183334Y-55897619D01*
X102926191Y-54797619D02*
X102664286Y-55897619D01*
X102454763Y-55111905D01*
X102245239Y-55897619D01*
X101983334Y-54797619D01*
X101564286Y-55897619D02*
X101564286Y-54797619D01*
X101092858Y-55897619D02*
X101092858Y-55321429D01*
X101145239Y-55216667D01*
X101250001Y-55164286D01*
X101407143Y-55164286D01*
X101511905Y-55216667D01*
X101564286Y-55269048D01*
X100569048Y-55897619D02*
X100569048Y-55164286D01*
X100569048Y-54797619D02*
X100621429Y-54850000D01*
X100569048Y-54902381D01*
X100516667Y-54850000D01*
X100569048Y-54797619D01*
X100569048Y-54902381D01*
X100202381Y-55164286D02*
X99783333Y-55164286D01*
X100045238Y-54797619D02*
X100045238Y-55740476D01*
X99992857Y-55845238D01*
X99888095Y-55897619D01*
X99783333Y-55897619D01*
X98997620Y-55845238D02*
X99102382Y-55897619D01*
X99311905Y-55897619D01*
X99416667Y-55845238D01*
X99469048Y-55740476D01*
X99469048Y-55321429D01*
X99416667Y-55216667D01*
X99311905Y-55164286D01*
X99102382Y-55164286D01*
X98997620Y-55216667D01*
X98945239Y-55321429D01*
X98945239Y-55426190D01*
X99469048Y-55530952D01*
X107011905Y-56590000D02*
X107116667Y-56537619D01*
X107273810Y-56537619D01*
X107430952Y-56590000D01*
X107535714Y-56694762D01*
X107588095Y-56799524D01*
X107640476Y-57009048D01*
X107640476Y-57166190D01*
X107588095Y-57375714D01*
X107535714Y-57480476D01*
X107430952Y-57585238D01*
X107273810Y-57637619D01*
X107169048Y-57637619D01*
X107011905Y-57585238D01*
X106959524Y-57532857D01*
X106959524Y-57166190D01*
X107169048Y-57166190D01*
X106016667Y-57637619D02*
X106016667Y-57061429D01*
X106069048Y-56956667D01*
X106173810Y-56904286D01*
X106383333Y-56904286D01*
X106488095Y-56956667D01*
X106016667Y-57585238D02*
X106121429Y-57637619D01*
X106383333Y-57637619D01*
X106488095Y-57585238D01*
X106540476Y-57480476D01*
X106540476Y-57375714D01*
X106488095Y-57270952D01*
X106383333Y-57218571D01*
X106121429Y-57218571D01*
X106016667Y-57166190D01*
X105492857Y-57637619D02*
X105492857Y-56904286D01*
X105492857Y-57113810D02*
X105440476Y-57009048D01*
X105388095Y-56956667D01*
X105283333Y-56904286D01*
X105178572Y-56904286D01*
X104916667Y-56904286D02*
X104654762Y-57637619D01*
X104392858Y-56904286D02*
X104654762Y-57637619D01*
X104759524Y-57899524D01*
X104811905Y-57951905D01*
X104916667Y-58004286D01*
X102769049Y-57061429D02*
X103135715Y-57061429D01*
X103135715Y-57637619D02*
X103135715Y-56537619D01*
X102611906Y-56537619D01*
X102035715Y-57637619D02*
X102140477Y-57585238D01*
X102192858Y-57480476D01*
X102192858Y-56537619D01*
X101197621Y-57585238D02*
X101302383Y-57637619D01*
X101511906Y-57637619D01*
X101616668Y-57585238D01*
X101669049Y-57480476D01*
X101669049Y-57061429D01*
X101616668Y-56956667D01*
X101511906Y-56904286D01*
X101302383Y-56904286D01*
X101197621Y-56956667D01*
X101145240Y-57061429D01*
X101145240Y-57166190D01*
X101669049Y-57270952D01*
X100830954Y-56904286D02*
X100411906Y-56904286D01*
X100673811Y-56537619D02*
X100673811Y-57480476D01*
X100621430Y-57585238D01*
X100516668Y-57637619D01*
X100411906Y-57637619D01*
X99573812Y-57585238D02*
X99678574Y-57637619D01*
X99888097Y-57637619D01*
X99992859Y-57585238D01*
X100045240Y-57532857D01*
X100097621Y-57428095D01*
X100097621Y-57113810D01*
X100045240Y-57009048D01*
X99992859Y-56956667D01*
X99888097Y-56904286D01*
X99678574Y-56904286D01*
X99573812Y-56956667D01*
X99102383Y-57637619D02*
X99102383Y-56537619D01*
X98630955Y-57637619D02*
X98630955Y-57061429D01*
X98683336Y-56956667D01*
X98788098Y-56904286D01*
X98945240Y-56904286D01*
X99050002Y-56956667D01*
X99102383Y-57009048D01*
X97688098Y-57585238D02*
X97792860Y-57637619D01*
X98002383Y-57637619D01*
X98107145Y-57585238D01*
X98159526Y-57480476D01*
X98159526Y-57061429D01*
X98107145Y-56956667D01*
X98002383Y-56904286D01*
X97792860Y-56904286D01*
X97688098Y-56956667D01*
X97635717Y-57061429D01*
X97635717Y-57166190D01*
X98159526Y-57270952D01*
X97164288Y-57637619D02*
X97164288Y-56904286D01*
X97164288Y-57113810D02*
X97111907Y-57009048D01*
X97059526Y-56956667D01*
X96954764Y-56904286D01*
X96850003Y-56904286D01*
D12*
G36*
X123111442Y-59915582D02*
X122375843Y-60121043D01*
X121683800Y-60474378D01*
X121468975Y-60623838D01*
X121239838Y-60818833D01*
X120985092Y-61072095D01*
X120734438Y-61349066D01*
X120517579Y-61615189D01*
X120364217Y-61835905D01*
X120304055Y-61976657D01*
X120304000Y-61979256D01*
X120374981Y-62046705D01*
X120566576Y-62168248D01*
X120846765Y-62324658D01*
X121081054Y-62445894D01*
X121858108Y-62836154D01*
X122147293Y-62488013D01*
X122587333Y-62072848D01*
X123080621Y-61801148D01*
X123602288Y-61670459D01*
X124127461Y-61678328D01*
X124631268Y-61822300D01*
X125088838Y-62099923D01*
X125475298Y-62508741D01*
X125672694Y-62835824D01*
X125854613Y-63376364D01*
X125882424Y-63924957D01*
X125767583Y-64454110D01*
X125521543Y-64936334D01*
X125155760Y-65344138D01*
X124681686Y-65650031D01*
X124463493Y-65737971D01*
X124018690Y-65847490D01*
X123604422Y-65844469D01*
X123143237Y-65728220D01*
X123137228Y-65726177D01*
X122878710Y-65601672D01*
X122592899Y-65408502D01*
X122317001Y-65179556D01*
X122088220Y-64947720D01*
X121943759Y-64745882D01*
X121912667Y-64643699D01*
X121847293Y-64528866D01*
X121786911Y-64512667D01*
X121645610Y-64549155D01*
X121411229Y-64645072D01*
X121123259Y-64780097D01*
X120821191Y-64933908D01*
X120544519Y-65086185D01*
X120332733Y-65216606D01*
X120225325Y-65304849D01*
X120219334Y-65319293D01*
X120270586Y-65468529D01*
X120405197Y-65702710D01*
X120594451Y-65979846D01*
X120809629Y-66257947D01*
X121022014Y-66495023D01*
X121026489Y-66499511D01*
X121637890Y-66994736D01*
X122334018Y-67355551D01*
X123087960Y-67574866D01*
X123872804Y-67645592D01*
X124661635Y-67560637D01*
X124867142Y-67511347D01*
X125569664Y-67238620D01*
X126204383Y-66828326D01*
X126751092Y-66303627D01*
X127189581Y-65687682D01*
X127499641Y-65003654D01*
X127656514Y-64314530D01*
X127681753Y-63466689D01*
X127547896Y-62674006D01*
X127256263Y-61940580D01*
X126808172Y-61270509D01*
X126602044Y-61038471D01*
X126008982Y-60533668D01*
X125339369Y-60167038D01*
X124617227Y-59940520D01*
X123866578Y-59856054D01*
X123111442Y-59915582D01*
X123111442Y-59915582D01*
G37*
X123111442Y-59915582D02*
X122375843Y-60121043D01*
X121683800Y-60474378D01*
X121468975Y-60623838D01*
X121239838Y-60818833D01*
X120985092Y-61072095D01*
X120734438Y-61349066D01*
X120517579Y-61615189D01*
X120364217Y-61835905D01*
X120304055Y-61976657D01*
X120304000Y-61979256D01*
X120374981Y-62046705D01*
X120566576Y-62168248D01*
X120846765Y-62324658D01*
X121081054Y-62445894D01*
X121858108Y-62836154D01*
X122147293Y-62488013D01*
X122587333Y-62072848D01*
X123080621Y-61801148D01*
X123602288Y-61670459D01*
X124127461Y-61678328D01*
X124631268Y-61822300D01*
X125088838Y-62099923D01*
X125475298Y-62508741D01*
X125672694Y-62835824D01*
X125854613Y-63376364D01*
X125882424Y-63924957D01*
X125767583Y-64454110D01*
X125521543Y-64936334D01*
X125155760Y-65344138D01*
X124681686Y-65650031D01*
X124463493Y-65737971D01*
X124018690Y-65847490D01*
X123604422Y-65844469D01*
X123143237Y-65728220D01*
X123137228Y-65726177D01*
X122878710Y-65601672D01*
X122592899Y-65408502D01*
X122317001Y-65179556D01*
X122088220Y-64947720D01*
X121943759Y-64745882D01*
X121912667Y-64643699D01*
X121847293Y-64528866D01*
X121786911Y-64512667D01*
X121645610Y-64549155D01*
X121411229Y-64645072D01*
X121123259Y-64780097D01*
X120821191Y-64933908D01*
X120544519Y-65086185D01*
X120332733Y-65216606D01*
X120225325Y-65304849D01*
X120219334Y-65319293D01*
X120270586Y-65468529D01*
X120405197Y-65702710D01*
X120594451Y-65979846D01*
X120809629Y-66257947D01*
X121022014Y-66495023D01*
X121026489Y-66499511D01*
X121637890Y-66994736D01*
X122334018Y-67355551D01*
X123087960Y-67574866D01*
X123872804Y-67645592D01*
X124661635Y-67560637D01*
X124867142Y-67511347D01*
X125569664Y-67238620D01*
X126204383Y-66828326D01*
X126751092Y-66303627D01*
X127189581Y-65687682D01*
X127499641Y-65003654D01*
X127656514Y-64314530D01*
X127681753Y-63466689D01*
X127547896Y-62674006D01*
X127256263Y-61940580D01*
X126808172Y-61270509D01*
X126602044Y-61038471D01*
X126008982Y-60533668D01*
X125339369Y-60167038D01*
X124617227Y-59940520D01*
X123866578Y-59856054D01*
X123111442Y-59915582D01*
G36*
X118102667Y-67306667D02*
X119796000Y-67306667D01*
X119796000Y-62396000D01*
X118102667Y-62396000D01*
X118102667Y-67306667D01*
X118102667Y-67306667D01*
G37*
X118102667Y-67306667D02*
X119796000Y-67306667D01*
X119796000Y-62396000D01*
X118102667Y-62396000D01*
X118102667Y-67306667D01*
G36*
X112853334Y-61718667D02*
X114970000Y-61718667D01*
X114970000Y-67306667D01*
X116663334Y-67306667D01*
X116663334Y-61718667D01*
X117638614Y-61718667D01*
X118056192Y-61717584D01*
X118332043Y-61710586D01*
X118493769Y-61692051D01*
X118568977Y-61656355D01*
X118585272Y-61597876D01*
X118573863Y-61528167D01*
X118540266Y-61351195D01*
X118490043Y-61067306D01*
X118433835Y-60736706D01*
X118431691Y-60723834D01*
X118329548Y-60110000D01*
X112853334Y-60110000D01*
X112853334Y-61718667D01*
X112853334Y-61718667D01*
G37*
X112853334Y-61718667D02*
X114970000Y-61718667D01*
X114970000Y-67306667D01*
X116663334Y-67306667D01*
X116663334Y-61718667D01*
X117638614Y-61718667D01*
X118056192Y-61717584D01*
X118332043Y-61710586D01*
X118493769Y-61692051D01*
X118568977Y-61656355D01*
X118585272Y-61597876D01*
X118573863Y-61528167D01*
X118540266Y-61351195D01*
X118490043Y-61067306D01*
X118433835Y-60736706D01*
X118431691Y-60723834D01*
X118329548Y-60110000D01*
X112853334Y-60110000D01*
X112853334Y-61718667D01*
G36*
X109975445Y-62344513D02*
X111329334Y-64579025D01*
X111329334Y-67306667D01*
X113022667Y-67306667D01*
X113022667Y-64480898D01*
X113728680Y-63332616D01*
X113973596Y-62933875D01*
X114189551Y-62581528D01*
X114359880Y-62302826D01*
X114467918Y-62125017D01*
X114495677Y-62078500D01*
X114485702Y-62030628D01*
X114376432Y-61998787D01*
X114146918Y-61980455D01*
X113776209Y-61973110D01*
X113616833Y-61972667D01*
X112677006Y-61972667D01*
X112413848Y-62396000D01*
X112270423Y-62621642D01*
X112166768Y-62775212D01*
X112130308Y-62819334D01*
X112083341Y-62749913D01*
X111964996Y-62556845D01*
X111788927Y-62262918D01*
X111568784Y-61890922D01*
X111318815Y-61464667D01*
X110527703Y-60110000D01*
X108621555Y-60110000D01*
X109975445Y-62344513D01*
X109975445Y-62344513D01*
G37*
X109975445Y-62344513D02*
X111329334Y-64579025D01*
X111329334Y-67306667D01*
X113022667Y-67306667D01*
X113022667Y-64480898D01*
X113728680Y-63332616D01*
X113973596Y-62933875D01*
X114189551Y-62581528D01*
X114359880Y-62302826D01*
X114467918Y-62125017D01*
X114495677Y-62078500D01*
X114485702Y-62030628D01*
X114376432Y-61998787D01*
X114146918Y-61980455D01*
X113776209Y-61973110D01*
X113616833Y-61972667D01*
X112677006Y-61972667D01*
X112413848Y-62396000D01*
X112270423Y-62621642D01*
X112166768Y-62775212D01*
X112130308Y-62819334D01*
X112083341Y-62749913D01*
X111964996Y-62556845D01*
X111788927Y-62262918D01*
X111568784Y-61890922D01*
X111318815Y-61464667D01*
X110527703Y-60110000D01*
X108621555Y-60110000D01*
X109975445Y-62344513D01*
G36*
X118383134Y-53521520D02*
X117851196Y-53709639D01*
X117393912Y-54014089D01*
X117211605Y-54200338D01*
X116887799Y-54681000D01*
X116712904Y-55197044D01*
X116668910Y-55707334D01*
X116690377Y-56127572D01*
X116764710Y-56481351D01*
X116911564Y-56819714D01*
X117150596Y-57193704D01*
X117338502Y-57446129D01*
X117901920Y-58315734D01*
X118345951Y-59303631D01*
X118669434Y-60406882D01*
X118812089Y-61168334D01*
X118865590Y-61484605D01*
X118915243Y-61708510D01*
X118953823Y-61810625D01*
X118968000Y-61803334D01*
X119000615Y-61670899D01*
X119056212Y-61412964D01*
X119126186Y-61070391D01*
X119181985Y-60787334D01*
X119434764Y-59750855D01*
X119766777Y-58823460D01*
X120170116Y-58025837D01*
X120337020Y-57766039D01*
X120647219Y-57307762D01*
X120871545Y-56954216D01*
X121025121Y-56674213D01*
X121123070Y-56436567D01*
X121180516Y-56210090D01*
X121212582Y-55963596D01*
X121212935Y-55959717D01*
X121202116Y-55617155D01*
X120134667Y-55617155D01*
X120122767Y-56079145D01*
X120078872Y-56400378D01*
X119990696Y-56608281D01*
X119845950Y-56730278D01*
X119632345Y-56793798D01*
X119605500Y-56798179D01*
X119505637Y-56751722D01*
X119372667Y-56638667D01*
X119289540Y-56531380D01*
X119238532Y-56385963D01*
X119212332Y-56162211D01*
X119203999Y-55834334D01*
X118864667Y-55834334D01*
X118860412Y-56243347D01*
X118845239Y-56509535D01*
X118815534Y-56659247D01*
X118767685Y-56718832D01*
X118742778Y-56723334D01*
X118645213Y-56643204D01*
X118594611Y-56412378D01*
X118546256Y-56165462D01*
X118466614Y-56082909D01*
X118370514Y-56166149D01*
X118282709Y-56382314D01*
X118189392Y-56602432D01*
X118084524Y-56716753D01*
X118056935Y-56723334D01*
X117979243Y-56720262D01*
X117946689Y-56687872D01*
X117963057Y-56591404D01*
X118032133Y-56396095D01*
X118116674Y-56174638D01*
X118300014Y-55695541D01*
X118114560Y-55313822D01*
X118011619Y-55089522D01*
X117985027Y-54980830D01*
X118030727Y-54954332D01*
X118071590Y-54959885D01*
X118184894Y-55050761D01*
X118303516Y-55247232D01*
X118345201Y-55347500D01*
X118455120Y-55602211D01*
X118537264Y-55690527D01*
X118589677Y-55612603D01*
X118610402Y-55368596D01*
X118610667Y-55326334D01*
X118627288Y-55075211D01*
X118683801Y-54960825D01*
X118737667Y-54945334D01*
X118795662Y-54972588D01*
X118833390Y-55072576D01*
X118854755Y-55272632D01*
X118863662Y-55600091D01*
X118864667Y-55834334D01*
X119203999Y-55834334D01*
X119203632Y-55819919D01*
X119203334Y-55707334D01*
X119208283Y-55335584D01*
X119226346Y-55104026D01*
X119262345Y-54983722D01*
X119321105Y-54945735D01*
X119330334Y-54945334D01*
X119390685Y-54974002D01*
X119428957Y-55078881D01*
X119449588Y-55288283D01*
X119457016Y-55630518D01*
X119457334Y-55755555D01*
X119459043Y-56129558D01*
X119469116Y-56364715D01*
X119494967Y-56491513D01*
X119544011Y-56540436D01*
X119623665Y-56541972D01*
X119647834Y-56538722D01*
X119737623Y-56515302D01*
X119795267Y-56453835D01*
X119829559Y-56321153D01*
X119849294Y-56084092D01*
X119862678Y-55728500D01*
X119880065Y-55346320D01*
X119906892Y-55106408D01*
X119948270Y-54981754D01*
X120009307Y-54945347D01*
X120010844Y-54945334D01*
X120074943Y-54979942D01*
X120113291Y-55103279D01*
X120131285Y-55344614D01*
X120134667Y-55617155D01*
X121202116Y-55617155D01*
X121192952Y-55327018D01*
X121020122Y-54752597D01*
X120703583Y-54253947D01*
X120252470Y-53848560D01*
X120043276Y-53720195D01*
X119517534Y-53520294D01*
X118951367Y-53456237D01*
X118383134Y-53521520D01*
X118383134Y-53521520D01*
G37*
X118383134Y-53521520D02*
X117851196Y-53709639D01*
X117393912Y-54014089D01*
X117211605Y-54200338D01*
X116887799Y-54681000D01*
X116712904Y-55197044D01*
X116668910Y-55707334D01*
X116690377Y-56127572D01*
X116764710Y-56481351D01*
X116911564Y-56819714D01*
X117150596Y-57193704D01*
X117338502Y-57446129D01*
X117901920Y-58315734D01*
X118345951Y-59303631D01*
X118669434Y-60406882D01*
X118812089Y-61168334D01*
X118865590Y-61484605D01*
X118915243Y-61708510D01*
X118953823Y-61810625D01*
X118968000Y-61803334D01*
X119000615Y-61670899D01*
X119056212Y-61412964D01*
X119126186Y-61070391D01*
X119181985Y-60787334D01*
X119434764Y-59750855D01*
X119766777Y-58823460D01*
X120170116Y-58025837D01*
X120337020Y-57766039D01*
X120647219Y-57307762D01*
X120871545Y-56954216D01*
X121025121Y-56674213D01*
X121123070Y-56436567D01*
X121180516Y-56210090D01*
X121212582Y-55963596D01*
X121212935Y-55959717D01*
X121202116Y-55617155D01*
X120134667Y-55617155D01*
X120122767Y-56079145D01*
X120078872Y-56400378D01*
X119990696Y-56608281D01*
X119845950Y-56730278D01*
X119632345Y-56793798D01*
X119605500Y-56798179D01*
X119505637Y-56751722D01*
X119372667Y-56638667D01*
X119289540Y-56531380D01*
X119238532Y-56385963D01*
X119212332Y-56162211D01*
X119203999Y-55834334D01*
X118864667Y-55834334D01*
X118860412Y-56243347D01*
X118845239Y-56509535D01*
X118815534Y-56659247D01*
X118767685Y-56718832D01*
X118742778Y-56723334D01*
X118645213Y-56643204D01*
X118594611Y-56412378D01*
X118546256Y-56165462D01*
X118466614Y-56082909D01*
X118370514Y-56166149D01*
X118282709Y-56382314D01*
X118189392Y-56602432D01*
X118084524Y-56716753D01*
X118056935Y-56723334D01*
X117979243Y-56720262D01*
X117946689Y-56687872D01*
X117963057Y-56591404D01*
X118032133Y-56396095D01*
X118116674Y-56174638D01*
X118300014Y-55695541D01*
X118114560Y-55313822D01*
X118011619Y-55089522D01*
X117985027Y-54980830D01*
X118030727Y-54954332D01*
X118071590Y-54959885D01*
X118184894Y-55050761D01*
X118303516Y-55247232D01*
X118345201Y-55347500D01*
X118455120Y-55602211D01*
X118537264Y-55690527D01*
X118589677Y-55612603D01*
X118610402Y-55368596D01*
X118610667Y-55326334D01*
X118627288Y-55075211D01*
X118683801Y-54960825D01*
X118737667Y-54945334D01*
X118795662Y-54972588D01*
X118833390Y-55072576D01*
X118854755Y-55272632D01*
X118863662Y-55600091D01*
X118864667Y-55834334D01*
X119203999Y-55834334D01*
X119203632Y-55819919D01*
X119203334Y-55707334D01*
X119208283Y-55335584D01*
X119226346Y-55104026D01*
X119262345Y-54983722D01*
X119321105Y-54945735D01*
X119330334Y-54945334D01*
X119390685Y-54974002D01*
X119428957Y-55078881D01*
X119449588Y-55288283D01*
X119457016Y-55630518D01*
X119457334Y-55755555D01*
X119459043Y-56129558D01*
X119469116Y-56364715D01*
X119494967Y-56491513D01*
X119544011Y-56540436D01*
X119623665Y-56541972D01*
X119647834Y-56538722D01*
X119737623Y-56515302D01*
X119795267Y-56453835D01*
X119829559Y-56321153D01*
X119849294Y-56084092D01*
X119862678Y-55728500D01*
X119880065Y-55346320D01*
X119906892Y-55106408D01*
X119948270Y-54981754D01*
X120009307Y-54945347D01*
X120010844Y-54945334D01*
X120074943Y-54979942D01*
X120113291Y-55103279D01*
X120131285Y-55344614D01*
X120134667Y-55617155D01*
X121202116Y-55617155D01*
X121192952Y-55327018D01*
X121020122Y-54752597D01*
X120703583Y-54253947D01*
X120252470Y-53848560D01*
X120043276Y-53720195D01*
X119517534Y-53520294D01*
X118951367Y-53456237D01*
X118383134Y-53521520D01*
G36*
X117943937Y-52189558D02*
X117403445Y-52383176D01*
X116926184Y-52657133D01*
X116462168Y-53012733D01*
X116059941Y-53407563D01*
X115768044Y-53799209D01*
X115753173Y-53825096D01*
X115567920Y-54154709D01*
X116086994Y-54401855D01*
X116369279Y-54529221D01*
X116535928Y-54581782D01*
X116619558Y-54566556D01*
X116645362Y-54522000D01*
X116756873Y-54336302D01*
X116973343Y-54097492D01*
X117254757Y-53839953D01*
X117561095Y-53598068D01*
X117852342Y-53406222D01*
X118058025Y-53308218D01*
X118701004Y-53173850D01*
X119345433Y-53200526D01*
X119961100Y-53386696D01*
X120007667Y-53408179D01*
X120568336Y-53756979D01*
X121010968Y-54204797D01*
X121324455Y-54729393D01*
X121497688Y-55308529D01*
X121519558Y-55919965D01*
X121453168Y-56301872D01*
X121324550Y-56718784D01*
X121157386Y-57063038D01*
X120912378Y-57408771D01*
X120784603Y-57563114D01*
X120646913Y-57756013D01*
X120476885Y-58038385D01*
X120295785Y-58368845D01*
X120124877Y-58706005D01*
X119985426Y-59008481D01*
X119898698Y-59234886D01*
X119880667Y-59322355D01*
X119896555Y-59401656D01*
X119967576Y-59418111D01*
X120128771Y-59368447D01*
X120346334Y-59278853D01*
X121048110Y-58911513D01*
X121620201Y-58456436D01*
X122088513Y-57892709D01*
X122118117Y-57848580D01*
X122419388Y-57253349D01*
X122609382Y-56571542D01*
X122683316Y-55848239D01*
X122636407Y-55128518D01*
X122474782Y-54487025D01*
X122138901Y-53797362D01*
X121673403Y-53195945D01*
X121100025Y-52703631D01*
X120440504Y-52341273D01*
X120116867Y-52224784D01*
X119400659Y-52082671D01*
X118659757Y-52071898D01*
X117943937Y-52189558D01*
X117943937Y-52189558D01*
G37*
X117943937Y-52189558D02*
X117403445Y-52383176D01*
X116926184Y-52657133D01*
X116462168Y-53012733D01*
X116059941Y-53407563D01*
X115768044Y-53799209D01*
X115753173Y-53825096D01*
X115567920Y-54154709D01*
X116086994Y-54401855D01*
X116369279Y-54529221D01*
X116535928Y-54581782D01*
X116619558Y-54566556D01*
X116645362Y-54522000D01*
X116756873Y-54336302D01*
X116973343Y-54097492D01*
X117254757Y-53839953D01*
X117561095Y-53598068D01*
X117852342Y-53406222D01*
X118058025Y-53308218D01*
X118701004Y-53173850D01*
X119345433Y-53200526D01*
X119961100Y-53386696D01*
X120007667Y-53408179D01*
X120568336Y-53756979D01*
X121010968Y-54204797D01*
X121324455Y-54729393D01*
X121497688Y-55308529D01*
X121519558Y-55919965D01*
X121453168Y-56301872D01*
X121324550Y-56718784D01*
X121157386Y-57063038D01*
X120912378Y-57408771D01*
X120784603Y-57563114D01*
X120646913Y-57756013D01*
X120476885Y-58038385D01*
X120295785Y-58368845D01*
X120124877Y-58706005D01*
X119985426Y-59008481D01*
X119898698Y-59234886D01*
X119880667Y-59322355D01*
X119896555Y-59401656D01*
X119967576Y-59418111D01*
X120128771Y-59368447D01*
X120346334Y-59278853D01*
X121048110Y-58911513D01*
X121620201Y-58456436D01*
X122088513Y-57892709D01*
X122118117Y-57848580D01*
X122419388Y-57253349D01*
X122609382Y-56571542D01*
X122683316Y-55848239D01*
X122636407Y-55128518D01*
X122474782Y-54487025D01*
X122138901Y-53797362D01*
X121673403Y-53195945D01*
X121100025Y-52703631D01*
X120440504Y-52341273D01*
X120116867Y-52224784D01*
X119400659Y-52082671D01*
X118659757Y-52071898D01*
X117943937Y-52189558D01*
G36*
X116270054Y-56843586D02*
X116002897Y-56968804D01*
X115476253Y-57234653D01*
X115655810Y-57586614D01*
X115968630Y-58059796D01*
X116400166Y-58517771D01*
X116902561Y-58914868D01*
X117280174Y-59136879D01*
X117647268Y-59315054D01*
X117883312Y-59408126D01*
X118005940Y-59412031D01*
X118032783Y-59322707D01*
X117981476Y-59136088D01*
X117925415Y-58988167D01*
X117764961Y-58616241D01*
X117579495Y-58269974D01*
X117339679Y-57900237D01*
X117016174Y-57457907D01*
X116994361Y-57429168D01*
X116800253Y-57166778D01*
X116648836Y-56948952D01*
X116568329Y-56816570D01*
X116563605Y-56805146D01*
X116479051Y-56777189D01*
X116270054Y-56843586D01*
X116270054Y-56843586D01*
G37*
X116270054Y-56843586D02*
X116002897Y-56968804D01*
X115476253Y-57234653D01*
X115655810Y-57586614D01*
X115968630Y-58059796D01*
X116400166Y-58517771D01*
X116902561Y-58914868D01*
X117280174Y-59136879D01*
X117647268Y-59315054D01*
X117883312Y-59408126D01*
X118005940Y-59412031D01*
X118032783Y-59322707D01*
X117981476Y-59136088D01*
X117925415Y-58988167D01*
X117764961Y-58616241D01*
X117579495Y-58269974D01*
X117339679Y-57900237D01*
X117016174Y-57457907D01*
X116994361Y-57429168D01*
X116800253Y-57166778D01*
X116648836Y-56948952D01*
X116568329Y-56816570D01*
X116563605Y-56805146D01*
X116479051Y-56777189D01*
X116270054Y-56843586D01*
G36*
X128686000Y-53760000D02*
X130887334Y-53760000D01*
X130887334Y-59348000D01*
X132496000Y-59348000D01*
X132496000Y-53760000D01*
X134612667Y-53760000D01*
X134612667Y-52151334D01*
X128686000Y-52151334D01*
X128686000Y-53760000D01*
X128686000Y-53760000D01*
G37*
X128686000Y-53760000D02*
X130887334Y-53760000D01*
X130887334Y-59348000D01*
X132496000Y-59348000D01*
X132496000Y-53760000D01*
X134612667Y-53760000D01*
X134612667Y-52151334D01*
X128686000Y-52151334D01*
X128686000Y-53760000D01*
G36*
X122844000Y-53760000D02*
X126654000Y-53760000D01*
X126654000Y-55030000D01*
X123182667Y-55030000D01*
X123182667Y-56300000D01*
X126654000Y-56300000D01*
X126654000Y-57993334D01*
X122759334Y-57993334D01*
X122759334Y-59348000D01*
X128262667Y-59348000D01*
X128262667Y-52151334D01*
X122844000Y-52151334D01*
X122844000Y-53760000D01*
X122844000Y-53760000D01*
G37*
X122844000Y-53760000D02*
X126654000Y-53760000D01*
X126654000Y-55030000D01*
X123182667Y-55030000D01*
X123182667Y-56300000D01*
X126654000Y-56300000D01*
X126654000Y-57993334D01*
X122759334Y-57993334D01*
X122759334Y-59348000D01*
X128262667Y-59348000D01*
X128262667Y-52151334D01*
X122844000Y-52151334D01*
X122844000Y-53760000D01*
G36*
X113107334Y-54860667D02*
X110313334Y-54860667D01*
X110313334Y-52151334D01*
X108620000Y-52151334D01*
X108620000Y-59348000D01*
X110313334Y-59348000D01*
X110313334Y-56300000D01*
X113107334Y-56300000D01*
X113107334Y-59348000D01*
X114800667Y-59348000D01*
X114800667Y-52151334D01*
X113107334Y-52151334D01*
X113107334Y-54860667D01*
X113107334Y-54860667D01*
G37*
X113107334Y-54860667D02*
X110313334Y-54860667D01*
X110313334Y-52151334D01*
X108620000Y-52151334D01*
X108620000Y-59348000D01*
X110313334Y-59348000D01*
X110313334Y-56300000D01*
X113107334Y-56300000D01*
X113107334Y-59348000D01*
X114800667Y-59348000D01*
X114800667Y-52151334D01*
X113107334Y-52151334D01*
X113107334Y-54860667D01*
D13*
X102231220Y-65989860D02*
X101870540Y-67460520D01*
X101870540Y-67460520D02*
X101591140Y-66398800D01*
X101591140Y-66398800D02*
X101281260Y-67470680D01*
X101281260Y-67470680D02*
X100940900Y-66020340D01*
X103651080Y-66680740D02*
X102861140Y-66670580D01*
X102861140Y-66670580D02*
X102850980Y-66680740D01*
X102850980Y-66680740D02*
X102850980Y-66670580D01*
X102810340Y-65959380D02*
X102810340Y-67501160D01*
X103699340Y-65949220D02*
X103699340Y-67518940D01*
X103699340Y-67518940D02*
X103689180Y-67508780D01*
X104250520Y-66050820D02*
X104601040Y-65969540D01*
X104601040Y-65969540D02*
X104921080Y-65959380D01*
X104921080Y-65959380D02*
X105159840Y-66160040D01*
X105159840Y-66160040D02*
X105190320Y-66429280D01*
X105190320Y-66429280D02*
X104949020Y-66670580D01*
X104949020Y-66670580D02*
X104560400Y-66800120D01*
X104560400Y-66800120D02*
X104380060Y-66960140D01*
X104380060Y-66960140D02*
X104339420Y-67259860D01*
X104339420Y-67259860D02*
X104570560Y-67480840D01*
X104570560Y-67480840D02*
X104890600Y-67508780D01*
X104890600Y-67508780D02*
X105241120Y-67399560D01*
X106279980Y-65949220D02*
X106528900Y-65969540D01*
X106528900Y-65969540D02*
X106770200Y-66210840D01*
X106770200Y-66210840D02*
X106859100Y-66701060D01*
X106859100Y-66701060D02*
X106831160Y-67049040D01*
X106831160Y-67049040D02*
X106630500Y-67369080D01*
X106630500Y-67369080D02*
X106379040Y-67491000D01*
X106379040Y-67491000D02*
X106069160Y-67419880D01*
X106069160Y-67419880D02*
X105850720Y-67239540D01*
X105850720Y-67239540D02*
X105779600Y-66779800D01*
X105779600Y-66779800D02*
X105830400Y-66370860D01*
X105830400Y-66370860D02*
X105939620Y-66088920D01*
X105939620Y-66088920D02*
X106300300Y-65959380D01*
X105680540Y-64229640D02*
X105939620Y-64790980D01*
X105939620Y-64790980D02*
X105401140Y-65309140D01*
X105401140Y-65309140D02*
X104880440Y-65039900D01*
X104880440Y-65039900D02*
X104601040Y-65199920D01*
X103160860Y-65179600D02*
X102830660Y-64989100D01*
X102830660Y-64989100D02*
X102391240Y-65319300D01*
X102391240Y-65319300D02*
X101918800Y-64829080D01*
X101918800Y-64829080D02*
X102200740Y-64349020D01*
X102200740Y-64349020D02*
X102010240Y-63879120D01*
X102010240Y-63879120D02*
X101400640Y-63691160D01*
X101400640Y-63691160D02*
X101400640Y-63010440D01*
X101400640Y-63010440D02*
X101959440Y-62870740D01*
X101959440Y-62870740D02*
X102160100Y-62299240D01*
X102160100Y-62299240D02*
X101890860Y-61829340D01*
X101890860Y-61829340D02*
X102360760Y-61318800D01*
X102360760Y-61318800D02*
X102878920Y-61580420D01*
X102878920Y-61580420D02*
X103348820Y-61379760D01*
X103348820Y-61379760D02*
X103519000Y-60838740D01*
X103519000Y-60838740D02*
X104209880Y-60820960D01*
X104209880Y-60820960D02*
X104420700Y-61369600D01*
X104420700Y-61369600D02*
X104839800Y-61539780D01*
X104839800Y-61539780D02*
X105390980Y-61270540D01*
X105390980Y-61270540D02*
X105909140Y-61798860D01*
X105909140Y-61798860D02*
X105660220Y-62339880D01*
X105660220Y-62339880D02*
X105830400Y-62819940D01*
X105830400Y-62819940D02*
X106379040Y-62919000D01*
X106379040Y-62919000D02*
X106389200Y-63620040D01*
X106389200Y-63620040D02*
X105830400Y-63820700D01*
X105830400Y-63820700D02*
X105690700Y-64219480D01*
X103549480Y-64199160D02*
X103249760Y-64049300D01*
X103249760Y-64049300D02*
X103049100Y-63851180D01*
X103049100Y-63851180D02*
X102899240Y-63449860D01*
X102899240Y-63449860D02*
X102899240Y-63051080D01*
X102899240Y-63051080D02*
X103049100Y-62700560D01*
X103049100Y-62700560D02*
X103501220Y-62350040D01*
X103501220Y-62350040D02*
X103950800Y-62299240D01*
X103950800Y-62299240D02*
X104349580Y-62400840D01*
X104349580Y-62400840D02*
X104750900Y-62748820D01*
X104750900Y-62748820D02*
X104900760Y-63200940D01*
X104900760Y-63200940D02*
X104849960Y-63698780D01*
X104849960Y-63698780D02*
X104601040Y-64001040D01*
X104601040Y-64001040D02*
X104250520Y-64199160D01*
X104250520Y-64199160D02*
X104601040Y-65199920D01*
X103549480Y-64199160D02*
X103150700Y-65199920D01*
M02*
