G04 #@! TF.FileFunction,Copper,L1,Top,Signal*
%FSLAX46Y46*%
G04 Gerber Fmt 4.6, Leading zero omitted, Abs format (unit mm)*
G04 Created by KiCad (PCBNEW 4.0.0-rc2-stable) date Mon 16 Nov 2015 06:25:23 AM PST*
%MOMM*%
G01*
G04 APERTURE LIST*
%ADD10C,0.100000*%
%ADD11R,1.200000X0.900000*%
%ADD12R,1.300000X1.500000*%
%ADD13R,0.900000X1.200000*%
%ADD14R,1.727200X2.032000*%
%ADD15O,1.727200X2.032000*%
%ADD16R,1.500000X1.300000*%
%ADD17R,1.060000X0.650000*%
%ADD18O,2.400000X1.100000*%
%ADD19R,1.100000X2.400000*%
%ADD20O,1.100000X2.400000*%
%ADD21R,1.750000X0.450000*%
%ADD22C,2.500000*%
%ADD23R,1.450000X1.000000*%
%ADD24R,1.350000X0.400000*%
%ADD25C,1.100000*%
%ADD26C,1.550000*%
%ADD27R,0.650000X1.060000*%
%ADD28C,0.700000*%
%ADD29C,0.250000*%
%ADD30C,0.500000*%
G04 APERTURE END LIST*
D10*
D11*
X120250000Y-52500000D03*
X122450000Y-52500000D03*
D12*
X104000000Y-79200000D03*
X104000000Y-76500000D03*
D13*
X104000000Y-65000000D03*
X104000000Y-67200000D03*
X111000000Y-54250000D03*
X111000000Y-56450000D03*
D12*
X95750000Y-79000000D03*
X95750000Y-76300000D03*
X95500000Y-46750000D03*
X95500000Y-49450000D03*
X131000000Y-76800000D03*
X131000000Y-79500000D03*
D14*
X122660000Y-50000000D03*
D15*
X120120000Y-50000000D03*
X117580000Y-50000000D03*
X115040000Y-50000000D03*
X112500000Y-50000000D03*
X109960000Y-50000000D03*
X107420000Y-50000000D03*
X104880000Y-50000000D03*
D12*
X107750000Y-59750000D03*
X107750000Y-62450000D03*
X104000000Y-70550000D03*
X104000000Y-73250000D03*
D16*
X106500000Y-46500000D03*
X103800000Y-46500000D03*
D12*
X106250000Y-65300000D03*
X106250000Y-68000000D03*
D16*
X121450000Y-75250000D03*
X118750000Y-75250000D03*
X113700000Y-75250000D03*
X111000000Y-75250000D03*
D12*
X108500000Y-71000000D03*
X108500000Y-73700000D03*
X106500000Y-76500000D03*
X106500000Y-79200000D03*
X108750000Y-68000000D03*
X108750000Y-65300000D03*
D17*
X106500000Y-55550000D03*
X106500000Y-56500000D03*
X106500000Y-57450000D03*
X108700000Y-57450000D03*
X108700000Y-55550000D03*
D18*
X112250000Y-58990000D03*
X112250000Y-60990000D03*
X112250000Y-62990000D03*
X112250000Y-64990000D03*
X112250000Y-66990000D03*
X112250000Y-68990000D03*
D19*
X128000000Y-56000000D03*
D20*
X126000000Y-56000000D03*
X124000000Y-56000000D03*
X122000000Y-56000000D03*
X120000000Y-56000000D03*
X118000000Y-56000000D03*
X116000000Y-56000000D03*
X114000000Y-56000000D03*
X114000000Y-72000000D03*
X116000000Y-72000000D03*
X118000000Y-72000000D03*
X120000000Y-72000000D03*
X122000000Y-72000000D03*
X124000000Y-72000000D03*
X126000000Y-72000000D03*
X128000000Y-72000000D03*
D21*
X103600000Y-62225000D03*
X103600000Y-61575000D03*
X103600000Y-60925000D03*
X103600000Y-60275000D03*
X103600000Y-59625000D03*
X103600000Y-58975000D03*
X103600000Y-58325000D03*
X103600000Y-57675000D03*
X103600000Y-57025000D03*
X103600000Y-56375000D03*
X103600000Y-55725000D03*
X103600000Y-55075000D03*
X103600000Y-54425000D03*
X103600000Y-53775000D03*
X96400000Y-53775000D03*
X96400000Y-54425000D03*
X96400000Y-55075000D03*
X96400000Y-55725000D03*
X96400000Y-56375000D03*
X96400000Y-57025000D03*
X96400000Y-57675000D03*
X96400000Y-58325000D03*
X96400000Y-58975000D03*
X96400000Y-59625000D03*
X96400000Y-60275000D03*
X96400000Y-60925000D03*
X96400000Y-61575000D03*
X96400000Y-62225000D03*
D22*
X100000000Y-50000000D03*
X127000000Y-50000000D03*
X100000000Y-77000000D03*
X127000000Y-77000000D03*
D23*
X117425000Y-79350000D03*
X122575000Y-79350000D03*
X122575000Y-77650000D03*
X117425000Y-77650000D03*
X109425000Y-79350000D03*
X114575000Y-79350000D03*
X114575000Y-77650000D03*
X109425000Y-77650000D03*
D24*
X100562540Y-67199100D03*
X100562540Y-67849100D03*
X100562540Y-68499100D03*
X100562540Y-69149100D03*
X100562540Y-69799100D03*
D25*
X100562540Y-65999100D03*
X100562540Y-70999100D03*
D26*
X97862540Y-64999100D03*
X97862540Y-71999100D03*
D27*
X132100000Y-49200000D03*
X133050000Y-49200000D03*
X134000000Y-49200000D03*
X134000000Y-47000000D03*
X132100000Y-47000000D03*
X133050000Y-47000000D03*
D28*
X97977816Y-56953761D03*
X106500000Y-53550001D03*
X98500000Y-67000000D03*
X102687560Y-65000000D03*
X111250000Y-73750000D03*
X102500000Y-74750000D03*
X100750000Y-61750000D03*
X112000000Y-79350000D03*
X115250000Y-70000000D03*
X105250000Y-58250000D03*
X105250000Y-56500000D03*
X98500000Y-70000000D03*
X102687560Y-67500000D03*
X115250000Y-58500000D03*
X109500000Y-63500000D03*
X108000000Y-80250000D03*
X129000000Y-80250000D03*
X108000000Y-76500000D03*
X118000000Y-69250000D03*
X129600000Y-49200000D03*
X113750000Y-52749981D03*
X129500000Y-47000000D03*
X106250000Y-59000000D03*
X106250000Y-63500000D03*
X120000000Y-69250000D03*
X120000000Y-77750000D03*
X115349987Y-75250000D03*
X116850021Y-69925020D03*
X106250000Y-70750000D03*
X124000000Y-54000000D03*
X116250000Y-75250000D03*
X119000000Y-69250000D03*
D29*
X95275000Y-55075000D02*
X96400000Y-55075000D01*
X95199999Y-54999999D02*
X95275000Y-55075000D01*
X95199999Y-53289999D02*
X95199999Y-54999999D01*
X95264999Y-53224999D02*
X95199999Y-53289999D01*
X99011410Y-53224999D02*
X95264999Y-53224999D01*
X101800011Y-56013600D02*
X99011410Y-53224999D01*
X103600000Y-60275000D02*
X102475000Y-60275000D01*
X101800011Y-59600011D02*
X101800011Y-56013600D01*
X102475000Y-60275000D02*
X101800011Y-59600011D01*
D30*
X99300900Y-67199100D02*
X99101800Y-67000000D01*
X99101800Y-67000000D02*
X98500000Y-67000000D01*
D29*
X100562540Y-67199100D02*
X99300900Y-67199100D01*
D30*
X122480001Y-46019999D02*
X120120000Y-48380000D01*
X120120000Y-48380000D02*
X120120000Y-50000000D01*
X134000000Y-47000000D02*
X134000000Y-46284998D01*
X133735001Y-46019999D02*
X122480001Y-46019999D01*
X134000000Y-46284998D02*
X133735001Y-46019999D01*
D29*
X97906577Y-57025000D02*
X97977816Y-56953761D01*
X96400000Y-57025000D02*
X97906577Y-57025000D01*
D30*
X120250000Y-52500000D02*
X120250000Y-50130000D01*
X120250000Y-50130000D02*
X120120000Y-50000000D01*
D29*
X104000000Y-52000000D02*
X104949999Y-52000000D01*
X104949999Y-52000000D02*
X106500000Y-53550001D01*
X103000000Y-51000000D02*
X104000000Y-52000000D01*
X103000000Y-49000000D02*
X103000000Y-51000000D01*
X104000000Y-48000000D02*
X103000000Y-49000000D01*
X104900000Y-48000000D02*
X104000000Y-48000000D01*
X106400000Y-46500000D02*
X104900000Y-48000000D01*
D30*
X106500000Y-55550000D02*
X106500000Y-53550001D01*
D29*
X104000000Y-70650000D02*
X104000000Y-70550000D01*
X104975001Y-71625001D02*
X104000000Y-70650000D01*
X104975001Y-78124999D02*
X104975001Y-71625001D01*
X104000000Y-79100000D02*
X104975001Y-78124999D01*
X104000000Y-79200000D02*
X104000000Y-79100000D01*
X104000000Y-70550000D02*
X104000000Y-70350000D01*
X104000000Y-70350000D02*
X106250000Y-68100000D01*
X106250000Y-68100000D02*
X106250000Y-68000000D01*
X106250000Y-68000000D02*
X106250000Y-67400000D01*
X106250000Y-67400000D02*
X104000000Y-65150000D01*
X104000000Y-65150000D02*
X104000000Y-65000000D01*
X106500000Y-46500000D02*
X106400000Y-46500000D01*
X106500000Y-54975000D02*
X106500000Y-55550000D01*
D30*
X104000000Y-65000000D02*
X102687560Y-65000000D01*
X99300900Y-69799100D02*
X99100000Y-70000000D01*
X99100000Y-70000000D02*
X98500000Y-70000000D01*
D29*
X100562540Y-69799100D02*
X99300900Y-69799100D01*
D30*
X134000000Y-50230000D02*
X133000000Y-51230000D01*
X133000000Y-51230000D02*
X132529999Y-51700001D01*
D29*
X133050000Y-49200000D02*
X133050000Y-51180000D01*
X133050000Y-51180000D02*
X133000000Y-51230000D01*
D30*
X134000000Y-49200000D02*
X134000000Y-50230000D01*
X122660000Y-50152400D02*
X122660000Y-50000000D01*
X132529999Y-51700001D02*
X124207601Y-51700001D01*
X124207601Y-51700001D02*
X122660000Y-50152400D01*
X98400000Y-60600000D02*
X98400000Y-57750996D01*
X98400000Y-57750996D02*
X98324004Y-57675000D01*
D29*
X97750000Y-60500000D02*
X97750000Y-60600000D01*
X97750000Y-60600000D02*
X97750000Y-60750000D01*
D30*
X100750000Y-61750000D02*
X99550000Y-61750000D01*
X99550000Y-61750000D02*
X98400000Y-60600000D01*
X98400000Y-60600000D02*
X97750000Y-60600000D01*
D29*
X97525000Y-60275000D02*
X97750000Y-60500000D01*
X97575000Y-60925000D02*
X97750000Y-60750000D01*
X96400000Y-60925000D02*
X97575000Y-60925000D01*
X98675002Y-57324002D02*
X98675002Y-56675998D01*
X96400000Y-57675000D02*
X98324004Y-57675000D01*
X98324004Y-57675000D02*
X98675002Y-57324002D01*
X98675002Y-56675998D02*
X97724004Y-55725000D01*
X97724004Y-55725000D02*
X96400000Y-55725000D01*
D30*
X122450000Y-52500000D02*
X122450000Y-50210000D01*
X122450000Y-50210000D02*
X122660000Y-50000000D01*
D29*
X111000000Y-75250000D02*
X111000000Y-74000000D01*
X111000000Y-74000000D02*
X111250000Y-73750000D01*
X104000000Y-76250000D02*
X102500000Y-74750000D01*
X104000000Y-76500000D02*
X104000000Y-76250000D01*
X96400000Y-60925000D02*
X97050000Y-60925000D01*
X96400000Y-60275000D02*
X97525000Y-60275000D01*
X114575000Y-79350000D02*
X112000000Y-79350000D01*
X112000000Y-79350000D02*
X109425000Y-79350000D01*
X114000000Y-72000000D02*
X114000000Y-71350000D01*
X114000000Y-71350000D02*
X115250000Y-70100000D01*
X115250000Y-70100000D02*
X115250000Y-70000000D01*
D30*
X113839366Y-71839366D02*
X114000000Y-72000000D01*
X113839366Y-70070884D02*
X113839366Y-71839366D01*
X113904208Y-58404208D02*
X113904208Y-70006042D01*
X111000000Y-56450000D02*
X111950000Y-56450000D01*
X111950000Y-56450000D02*
X113904208Y-58404208D01*
X113904208Y-70006042D02*
X113839366Y-70070884D01*
D29*
X117425000Y-79350000D02*
X114575000Y-79350000D01*
X122575000Y-79350000D02*
X121600000Y-79350000D01*
X121600000Y-79350000D02*
X117425000Y-79350000D01*
D30*
X111000000Y-56450000D02*
X106550000Y-56450000D01*
X106550000Y-56450000D02*
X106500000Y-56500000D01*
D29*
X103600000Y-58325000D02*
X105175000Y-58325000D01*
X105175000Y-58325000D02*
X105250000Y-58250000D01*
D30*
X106500000Y-56500000D02*
X105250000Y-56500000D01*
X104000000Y-67200000D02*
X102987560Y-67200000D01*
X102987560Y-67200000D02*
X102687560Y-67500000D01*
D29*
X108500000Y-73600000D02*
X108500000Y-73700000D01*
X108750000Y-68000000D02*
X108750000Y-69372822D01*
X109475001Y-72624999D02*
X108500000Y-73600000D01*
X109475001Y-70097823D02*
X109475001Y-72624999D01*
X108750000Y-69372822D02*
X109475001Y-70097823D01*
D30*
X111000000Y-54250000D02*
X110000000Y-54250000D01*
X110000000Y-54250000D02*
X108700000Y-55550000D01*
D29*
X115250000Y-58500000D02*
X114000000Y-57250000D01*
X114000000Y-57250000D02*
X114000000Y-56000000D01*
X108750000Y-68000000D02*
X108750000Y-67900000D01*
X107774999Y-64289999D02*
X108564998Y-63500000D01*
X108750000Y-67900000D02*
X107774999Y-66924999D01*
X108564998Y-63500000D02*
X109500000Y-63500000D01*
X107774999Y-66924999D02*
X107774999Y-64289999D01*
X108500000Y-73700000D02*
X107314998Y-73700000D01*
X107314998Y-73700000D02*
X105524999Y-75489999D01*
X105524999Y-75489999D02*
X105524999Y-78124999D01*
X105524999Y-78124999D02*
X106500000Y-79100000D01*
X106500000Y-79100000D02*
X106500000Y-79200000D01*
X108000000Y-80250000D02*
X107550000Y-80250000D01*
X107550000Y-80250000D02*
X106500000Y-79200000D01*
X130350000Y-80250000D02*
X129000000Y-80250000D01*
X131000000Y-79500000D02*
X131000000Y-79600000D01*
X131000000Y-79600000D02*
X130350000Y-80250000D01*
D30*
X108905000Y-55550000D02*
X108700000Y-55550000D01*
X114000000Y-55250000D02*
X113000000Y-54250000D01*
X113000000Y-54250000D02*
X111000000Y-54250000D01*
X114000000Y-56000000D02*
X114000000Y-55250000D01*
D29*
X97250000Y-75500000D02*
X97250000Y-77400000D01*
X95750000Y-78900000D02*
X95750000Y-79000000D01*
X97250000Y-77400000D02*
X95750000Y-78900000D01*
X99000000Y-73750000D02*
X97250000Y-75500000D01*
X100900000Y-73750000D02*
X99000000Y-73750000D01*
X104000000Y-73250000D02*
X101400000Y-73250000D01*
X101400000Y-73250000D02*
X100900000Y-73750000D01*
X95750000Y-76300000D02*
X95750000Y-75300000D01*
X95750000Y-75300000D02*
X95199999Y-74749999D01*
X95199999Y-74749999D02*
X95199999Y-59050001D01*
X95199999Y-59050001D02*
X95275000Y-58975000D01*
X95275000Y-58975000D02*
X96400000Y-58975000D01*
X103800000Y-46500000D02*
X95750000Y-46500000D01*
X95750000Y-46500000D02*
X95500000Y-46750000D01*
X95275000Y-58325000D02*
X96400000Y-58325000D01*
X94549991Y-57599991D02*
X95275000Y-58325000D01*
X94549991Y-51400009D02*
X94549991Y-57599991D01*
X95500000Y-50450000D02*
X94549991Y-51400009D01*
X95500000Y-49450000D02*
X95500000Y-50450000D01*
X129550000Y-75250000D02*
X121450000Y-75250000D01*
X131000000Y-76800000D02*
X131000000Y-76700000D01*
X131000000Y-76700000D02*
X129550000Y-75250000D01*
X101562541Y-67774099D02*
X101487540Y-67849100D01*
X101487540Y-67849100D02*
X100562540Y-67849100D01*
X100600000Y-57450000D02*
X97575000Y-54425000D01*
X97575000Y-54425000D02*
X96400000Y-54425000D01*
X100600000Y-60350000D02*
X100600000Y-57450000D01*
X101562541Y-61312541D02*
X100600000Y-60350000D01*
X101562541Y-67774099D02*
X101562541Y-61312541D01*
X97402179Y-54425000D02*
X96400000Y-54425000D01*
X101350000Y-57250000D02*
X97875000Y-53775000D01*
X97875000Y-53775000D02*
X97388589Y-53775000D01*
X101350000Y-60250000D02*
X101350000Y-57250000D01*
X102012550Y-60912550D02*
X101350000Y-60250000D01*
X102012550Y-67974090D02*
X102012550Y-60912550D01*
X102012550Y-67974090D02*
X101487540Y-68499100D01*
X101487540Y-68499100D02*
X100562540Y-68499100D01*
X96400000Y-53775000D02*
X97388589Y-53775000D01*
X118000000Y-69250000D02*
X121000000Y-66250000D01*
X121000000Y-54750000D02*
X120000000Y-53750000D01*
X121000000Y-66250000D02*
X121000000Y-54750000D01*
X120000000Y-53750000D02*
X119500000Y-53750000D01*
X119500000Y-53750000D02*
X117500000Y-51750000D01*
X117500000Y-51750000D02*
X114885415Y-51750000D01*
X114885415Y-51750000D02*
X113135415Y-50000000D01*
X113135415Y-50000000D02*
X112500000Y-50000000D01*
X108000000Y-76500000D02*
X106500000Y-76500000D01*
X118000000Y-72000000D02*
X118000000Y-69250000D01*
X132100000Y-49200000D02*
X129600000Y-49200000D01*
X115399981Y-52749981D02*
X114244974Y-52749981D01*
X114244974Y-52749981D02*
X113750000Y-52749981D01*
X118000000Y-55350000D02*
X115399981Y-52749981D01*
X118000000Y-56000000D02*
X118000000Y-55350000D01*
X132100000Y-47000000D02*
X129500000Y-47000000D01*
X116874979Y-52224979D02*
X120000000Y-55350000D01*
X104880000Y-50000000D02*
X104880000Y-50152400D01*
X114224000Y-52224979D02*
X116874979Y-52224979D01*
X120000000Y-55350000D02*
X120000000Y-56000000D01*
X114074001Y-52074980D02*
X114224000Y-52224979D01*
X106802580Y-52074980D02*
X114074001Y-52074980D01*
X104880000Y-50152400D02*
X106802580Y-52074980D01*
X113637559Y-73525010D02*
X125124990Y-73525010D01*
X110825034Y-69430799D02*
X110825034Y-70712485D01*
X110724990Y-61824990D02*
X110724990Y-69330755D01*
X125124990Y-73525010D02*
X126000000Y-72650000D01*
X107750000Y-59750000D02*
X108650000Y-59750000D01*
X110825034Y-70712485D02*
X113637559Y-73525010D01*
X110724990Y-69330755D02*
X110825034Y-69430799D01*
X108650000Y-59750000D02*
X110724990Y-61824990D01*
X126000000Y-72650000D02*
X126000000Y-72000000D01*
X106450000Y-62450000D02*
X106225000Y-62225000D01*
X106225000Y-62225000D02*
X103600000Y-62225000D01*
X107750000Y-62450000D02*
X106450000Y-62450000D01*
X106250000Y-59000000D02*
X106250000Y-57700000D01*
X106250000Y-57700000D02*
X106500000Y-57450000D01*
X106250000Y-65300000D02*
X106250000Y-63500000D01*
X118750000Y-75250000D02*
X118650000Y-75250000D01*
X118650000Y-75250000D02*
X117425000Y-76475000D01*
X117425000Y-76475000D02*
X117425000Y-76900000D01*
X117425000Y-76900000D02*
X117425000Y-77650000D01*
X120000000Y-77750000D02*
X117525000Y-77750000D01*
X117525000Y-77750000D02*
X117425000Y-77650000D01*
X120000000Y-77750000D02*
X122475000Y-77750000D01*
X122475000Y-77750000D02*
X122575000Y-77650000D01*
X122425000Y-77500000D02*
X122575000Y-77650000D01*
X120000000Y-72000000D02*
X120000000Y-69250000D01*
X113700000Y-75250000D02*
X115349987Y-75250000D01*
X116850021Y-70499979D02*
X116850021Y-70419994D01*
X116000000Y-71350000D02*
X116850021Y-70499979D01*
X116000000Y-72000000D02*
X116000000Y-71350000D01*
X116850021Y-70419994D02*
X116850021Y-69925020D01*
X106250000Y-70750000D02*
X108250000Y-70750000D01*
X108250000Y-70750000D02*
X108500000Y-71000000D01*
X124000000Y-56000000D02*
X124000000Y-54000000D01*
X109824968Y-66474968D02*
X109824968Y-69811379D01*
X108750000Y-65400000D02*
X109824968Y-66474968D01*
X109925012Y-69911423D02*
X109925012Y-72911399D01*
X109425000Y-76900000D02*
X109425000Y-77650000D01*
X109824968Y-69811379D02*
X109925012Y-69911423D01*
X108750000Y-65300000D02*
X108750000Y-65400000D01*
X109925012Y-72911399D02*
X109725001Y-73111410D01*
X109725001Y-76599999D02*
X109425000Y-76900000D01*
X109725001Y-73111410D02*
X109725001Y-76599999D01*
X114575000Y-77650000D02*
X109425000Y-77650000D01*
X116250000Y-75250000D02*
X116250000Y-76200000D01*
X116250000Y-76200000D02*
X114800000Y-77650000D01*
X114800000Y-77650000D02*
X114575000Y-77650000D01*
X128000000Y-56000000D02*
X128000000Y-60250000D01*
X128000000Y-60250000D02*
X119000000Y-69250000D01*
X106839999Y-60825001D02*
X108110003Y-60825001D01*
X113451159Y-73975021D02*
X126674979Y-73975021D01*
X103600000Y-59625000D02*
X105639998Y-59625000D01*
X105639998Y-59625000D02*
X106839999Y-60825001D01*
X110274979Y-62989977D02*
X110274979Y-69517155D01*
X108110003Y-60825001D02*
X110274979Y-62989977D01*
X110274979Y-69517155D02*
X110375023Y-69617199D01*
X110375023Y-69617199D02*
X110375023Y-70898885D01*
X110375023Y-70898885D02*
X113451159Y-73975021D01*
X128000000Y-72650000D02*
X128000000Y-72000000D01*
X126674979Y-73975021D02*
X128000000Y-72650000D01*
M02*
