G04 #@! TF.FileFunction,Drawing*
%FSLAX46Y46*%
G04 Gerber Fmt 4.6, Leading zero omitted, Abs format (unit mm)*
G04 Created by KiCad (PCBNEW 4.0.0-rc2-stable) date Mon 16 Nov 2015 05:30:53 PM PST*
%MOMM*%
G01*
G04 APERTURE LIST*
%ADD10C,0.100000*%
%ADD11C,0.300000*%
G04 APERTURE END LIST*
D10*
D11*
X107285715Y-39471429D02*
X107357144Y-39400000D01*
X107500001Y-39328571D01*
X107857144Y-39328571D01*
X108000001Y-39400000D01*
X108071430Y-39471429D01*
X108142858Y-39614286D01*
X108142858Y-39757143D01*
X108071430Y-39971429D01*
X107214287Y-40828571D01*
X108142858Y-40828571D01*
X108642858Y-39328571D02*
X109642858Y-39328571D01*
X109000001Y-40828571D01*
X110214286Y-40685714D02*
X110285714Y-40757143D01*
X110214286Y-40828571D01*
X110142857Y-40757143D01*
X110214286Y-40685714D01*
X110214286Y-40828571D01*
X111214286Y-39328571D02*
X111357143Y-39328571D01*
X111500000Y-39400000D01*
X111571429Y-39471429D01*
X111642858Y-39614286D01*
X111714286Y-39900000D01*
X111714286Y-40257143D01*
X111642858Y-40542857D01*
X111571429Y-40685714D01*
X111500000Y-40757143D01*
X111357143Y-40828571D01*
X111214286Y-40828571D01*
X111071429Y-40757143D01*
X111000000Y-40685714D01*
X110928572Y-40542857D01*
X110857143Y-40257143D01*
X110857143Y-39900000D01*
X110928572Y-39614286D01*
X111000000Y-39471429D01*
X111071429Y-39400000D01*
X111214286Y-39328571D01*
X112642857Y-39328571D02*
X112785714Y-39328571D01*
X112928571Y-39400000D01*
X113000000Y-39471429D01*
X113071429Y-39614286D01*
X113142857Y-39900000D01*
X113142857Y-40257143D01*
X113071429Y-40542857D01*
X113000000Y-40685714D01*
X112928571Y-40757143D01*
X112785714Y-40828571D01*
X112642857Y-40828571D01*
X112500000Y-40757143D01*
X112428571Y-40685714D01*
X112357143Y-40542857D01*
X112285714Y-40257143D01*
X112285714Y-39900000D01*
X112357143Y-39614286D01*
X112428571Y-39471429D01*
X112500000Y-39400000D01*
X112642857Y-39328571D01*
X114071428Y-39328571D02*
X114214285Y-39328571D01*
X114357142Y-39400000D01*
X114428571Y-39471429D01*
X114500000Y-39614286D01*
X114571428Y-39900000D01*
X114571428Y-40257143D01*
X114500000Y-40542857D01*
X114428571Y-40685714D01*
X114357142Y-40757143D01*
X114214285Y-40828571D01*
X114071428Y-40828571D01*
X113928571Y-40757143D01*
X113857142Y-40685714D01*
X113785714Y-40542857D01*
X113714285Y-40257143D01*
X113714285Y-39900000D01*
X113785714Y-39614286D01*
X113857142Y-39471429D01*
X113928571Y-39400000D01*
X114071428Y-39328571D01*
X116357142Y-40828571D02*
X116357142Y-39828571D01*
X116357142Y-39971429D02*
X116428570Y-39900000D01*
X116571428Y-39828571D01*
X116785713Y-39828571D01*
X116928570Y-39900000D01*
X116999999Y-40042857D01*
X116999999Y-40828571D01*
X116999999Y-40042857D02*
X117071428Y-39900000D01*
X117214285Y-39828571D01*
X117428570Y-39828571D01*
X117571428Y-39900000D01*
X117642856Y-40042857D01*
X117642856Y-40828571D01*
X118357142Y-40828571D02*
X118357142Y-39828571D01*
X118357142Y-39971429D02*
X118428570Y-39900000D01*
X118571428Y-39828571D01*
X118785713Y-39828571D01*
X118928570Y-39900000D01*
X118999999Y-40042857D01*
X118999999Y-40828571D01*
X118999999Y-40042857D02*
X119071428Y-39900000D01*
X119214285Y-39828571D01*
X119428570Y-39828571D01*
X119571428Y-39900000D01*
X119642856Y-40042857D01*
X119642856Y-40828571D01*
X127000000Y-41500000D02*
X100000000Y-41500000D01*
X127000000Y-50000000D02*
X127000000Y-38800000D01*
X100000000Y-50000000D02*
X100000000Y-38800000D01*
X100000000Y-41500000D02*
X101126504Y-40913579D01*
X100000000Y-41500000D02*
X101126504Y-42086421D01*
X127000000Y-41500000D02*
X125873496Y-40913579D01*
X127000000Y-41500000D02*
X125873496Y-42086421D01*
X142878571Y-57285715D02*
X142950000Y-57357144D01*
X143021429Y-57500001D01*
X143021429Y-57857144D01*
X142950000Y-58000001D01*
X142878571Y-58071430D01*
X142735714Y-58142858D01*
X142592857Y-58142858D01*
X142378571Y-58071430D01*
X141521429Y-57214287D01*
X141521429Y-58142858D01*
X143021429Y-58642858D02*
X143021429Y-59642858D01*
X141521429Y-59000001D01*
X141664286Y-60214286D02*
X141592857Y-60285714D01*
X141521429Y-60214286D01*
X141592857Y-60142857D01*
X141664286Y-60214286D01*
X141521429Y-60214286D01*
X143021429Y-61214286D02*
X143021429Y-61357143D01*
X142950000Y-61500000D01*
X142878571Y-61571429D01*
X142735714Y-61642858D01*
X142450000Y-61714286D01*
X142092857Y-61714286D01*
X141807143Y-61642858D01*
X141664286Y-61571429D01*
X141592857Y-61500000D01*
X141521429Y-61357143D01*
X141521429Y-61214286D01*
X141592857Y-61071429D01*
X141664286Y-61000000D01*
X141807143Y-60928572D01*
X142092857Y-60857143D01*
X142450000Y-60857143D01*
X142735714Y-60928572D01*
X142878571Y-61000000D01*
X142950000Y-61071429D01*
X143021429Y-61214286D01*
X143021429Y-62642857D02*
X143021429Y-62785714D01*
X142950000Y-62928571D01*
X142878571Y-63000000D01*
X142735714Y-63071429D01*
X142450000Y-63142857D01*
X142092857Y-63142857D01*
X141807143Y-63071429D01*
X141664286Y-63000000D01*
X141592857Y-62928571D01*
X141521429Y-62785714D01*
X141521429Y-62642857D01*
X141592857Y-62500000D01*
X141664286Y-62428571D01*
X141807143Y-62357143D01*
X142092857Y-62285714D01*
X142450000Y-62285714D01*
X142735714Y-62357143D01*
X142878571Y-62428571D01*
X142950000Y-62500000D01*
X143021429Y-62642857D01*
X143021429Y-64071428D02*
X143021429Y-64214285D01*
X142950000Y-64357142D01*
X142878571Y-64428571D01*
X142735714Y-64500000D01*
X142450000Y-64571428D01*
X142092857Y-64571428D01*
X141807143Y-64500000D01*
X141664286Y-64428571D01*
X141592857Y-64357142D01*
X141521429Y-64214285D01*
X141521429Y-64071428D01*
X141592857Y-63928571D01*
X141664286Y-63857142D01*
X141807143Y-63785714D01*
X142092857Y-63714285D01*
X142450000Y-63714285D01*
X142735714Y-63785714D01*
X142878571Y-63857142D01*
X142950000Y-63928571D01*
X143021429Y-64071428D01*
X141521429Y-66357142D02*
X142521429Y-66357142D01*
X142378571Y-66357142D02*
X142450000Y-66428570D01*
X142521429Y-66571428D01*
X142521429Y-66785713D01*
X142450000Y-66928570D01*
X142307143Y-66999999D01*
X141521429Y-66999999D01*
X142307143Y-66999999D02*
X142450000Y-67071428D01*
X142521429Y-67214285D01*
X142521429Y-67428570D01*
X142450000Y-67571428D01*
X142307143Y-67642856D01*
X141521429Y-67642856D01*
X141521429Y-68357142D02*
X142521429Y-68357142D01*
X142378571Y-68357142D02*
X142450000Y-68428570D01*
X142521429Y-68571428D01*
X142521429Y-68785713D01*
X142450000Y-68928570D01*
X142307143Y-68999999D01*
X141521429Y-68999999D01*
X142307143Y-68999999D02*
X142450000Y-69071428D01*
X142521429Y-69214285D01*
X142521429Y-69428570D01*
X142450000Y-69571428D01*
X142307143Y-69642856D01*
X141521429Y-69642856D01*
X140850000Y-50000000D02*
X140850000Y-77000000D01*
X127000000Y-50000000D02*
X143550000Y-50000000D01*
X127000000Y-77000000D02*
X143550000Y-77000000D01*
X140850000Y-77000000D02*
X140263579Y-75873496D01*
X140850000Y-77000000D02*
X141436421Y-75873496D01*
X140850000Y-50000000D02*
X140263579Y-51126504D01*
X140850000Y-50000000D02*
X141436421Y-51126504D01*
X147221429Y-56714287D02*
X147221429Y-57642858D01*
X146650000Y-57142858D01*
X146650000Y-57357144D01*
X146578571Y-57500001D01*
X146507143Y-57571430D01*
X146364286Y-57642858D01*
X146007143Y-57642858D01*
X145864286Y-57571430D01*
X145792857Y-57500001D01*
X145721429Y-57357144D01*
X145721429Y-56928572D01*
X145792857Y-56785715D01*
X145864286Y-56714287D01*
X147221429Y-58928572D02*
X147221429Y-58642858D01*
X147150000Y-58500001D01*
X147078571Y-58428572D01*
X146864286Y-58285715D01*
X146578571Y-58214286D01*
X146007143Y-58214286D01*
X145864286Y-58285715D01*
X145792857Y-58357143D01*
X145721429Y-58500001D01*
X145721429Y-58785715D01*
X145792857Y-58928572D01*
X145864286Y-59000001D01*
X146007143Y-59071429D01*
X146364286Y-59071429D01*
X146507143Y-59000001D01*
X146578571Y-58928572D01*
X146650000Y-58785715D01*
X146650000Y-58500001D01*
X146578571Y-58357143D01*
X146507143Y-58285715D01*
X146364286Y-58214286D01*
X145864286Y-59714286D02*
X145792857Y-59785714D01*
X145721429Y-59714286D01*
X145792857Y-59642857D01*
X145864286Y-59714286D01*
X145721429Y-59714286D01*
X147221429Y-60714286D02*
X147221429Y-60857143D01*
X147150000Y-61000000D01*
X147078571Y-61071429D01*
X146935714Y-61142858D01*
X146650000Y-61214286D01*
X146292857Y-61214286D01*
X146007143Y-61142858D01*
X145864286Y-61071429D01*
X145792857Y-61000000D01*
X145721429Y-60857143D01*
X145721429Y-60714286D01*
X145792857Y-60571429D01*
X145864286Y-60500000D01*
X146007143Y-60428572D01*
X146292857Y-60357143D01*
X146650000Y-60357143D01*
X146935714Y-60428572D01*
X147078571Y-60500000D01*
X147150000Y-60571429D01*
X147221429Y-60714286D01*
X147221429Y-62142857D02*
X147221429Y-62285714D01*
X147150000Y-62428571D01*
X147078571Y-62500000D01*
X146935714Y-62571429D01*
X146650000Y-62642857D01*
X146292857Y-62642857D01*
X146007143Y-62571429D01*
X145864286Y-62500000D01*
X145792857Y-62428571D01*
X145721429Y-62285714D01*
X145721429Y-62142857D01*
X145792857Y-62000000D01*
X145864286Y-61928571D01*
X146007143Y-61857143D01*
X146292857Y-61785714D01*
X146650000Y-61785714D01*
X146935714Y-61857143D01*
X147078571Y-61928571D01*
X147150000Y-62000000D01*
X147221429Y-62142857D01*
X147221429Y-63571428D02*
X147221429Y-63714285D01*
X147150000Y-63857142D01*
X147078571Y-63928571D01*
X146935714Y-64000000D01*
X146650000Y-64071428D01*
X146292857Y-64071428D01*
X146007143Y-64000000D01*
X145864286Y-63928571D01*
X145792857Y-63857142D01*
X145721429Y-63714285D01*
X145721429Y-63571428D01*
X145792857Y-63428571D01*
X145864286Y-63357142D01*
X146007143Y-63285714D01*
X146292857Y-63214285D01*
X146650000Y-63214285D01*
X146935714Y-63285714D01*
X147078571Y-63357142D01*
X147150000Y-63428571D01*
X147221429Y-63571428D01*
X145721429Y-65857142D02*
X146721429Y-65857142D01*
X146578571Y-65857142D02*
X146650000Y-65928570D01*
X146721429Y-66071428D01*
X146721429Y-66285713D01*
X146650000Y-66428570D01*
X146507143Y-66499999D01*
X145721429Y-66499999D01*
X146507143Y-66499999D02*
X146650000Y-66571428D01*
X146721429Y-66714285D01*
X146721429Y-66928570D01*
X146650000Y-67071428D01*
X146507143Y-67142856D01*
X145721429Y-67142856D01*
X145721429Y-67857142D02*
X146721429Y-67857142D01*
X146578571Y-67857142D02*
X146650000Y-67928570D01*
X146721429Y-68071428D01*
X146721429Y-68285713D01*
X146650000Y-68428570D01*
X146507143Y-68499999D01*
X145721429Y-68499999D01*
X146507143Y-68499999D02*
X146650000Y-68571428D01*
X146721429Y-68714285D01*
X146721429Y-68928570D01*
X146650000Y-69071428D01*
X146507143Y-69142856D01*
X145721429Y-69142856D01*
X145050000Y-45000000D02*
X145050000Y-81000000D01*
X137000000Y-45000000D02*
X147750000Y-45000000D01*
X137000000Y-81000000D02*
X147750000Y-81000000D01*
X145050000Y-81000000D02*
X144463579Y-79873496D01*
X145050000Y-81000000D02*
X145636421Y-79873496D01*
X145050000Y-45000000D02*
X144463579Y-46126504D01*
X145050000Y-45000000D02*
X145636421Y-46126504D01*
X109759373Y-34328571D02*
X109759373Y-35328571D01*
X109402230Y-33757143D02*
X109045087Y-34828571D01*
X109973659Y-34828571D01*
X110473658Y-33971429D02*
X110545087Y-33900000D01*
X110687944Y-33828571D01*
X111045087Y-33828571D01*
X111187944Y-33900000D01*
X111259373Y-33971429D01*
X111330801Y-34114286D01*
X111330801Y-34257143D01*
X111259373Y-34471429D01*
X110402230Y-35328571D01*
X111330801Y-35328571D01*
X111973658Y-35185714D02*
X112045086Y-35257143D01*
X111973658Y-35328571D01*
X111902229Y-35257143D01*
X111973658Y-35185714D01*
X111973658Y-35328571D01*
X113402230Y-33828571D02*
X112687944Y-33828571D01*
X112616515Y-34542857D01*
X112687944Y-34471429D01*
X112830801Y-34400000D01*
X113187944Y-34400000D01*
X113330801Y-34471429D01*
X113402230Y-34542857D01*
X113473658Y-34685714D01*
X113473658Y-35042857D01*
X113402230Y-35185714D01*
X113330801Y-35257143D01*
X113187944Y-35328571D01*
X112830801Y-35328571D01*
X112687944Y-35257143D01*
X112616515Y-35185714D01*
X114402229Y-33828571D02*
X114545086Y-33828571D01*
X114687943Y-33900000D01*
X114759372Y-33971429D01*
X114830801Y-34114286D01*
X114902229Y-34400000D01*
X114902229Y-34757143D01*
X114830801Y-35042857D01*
X114759372Y-35185714D01*
X114687943Y-35257143D01*
X114545086Y-35328571D01*
X114402229Y-35328571D01*
X114259372Y-35257143D01*
X114187943Y-35185714D01*
X114116515Y-35042857D01*
X114045086Y-34757143D01*
X114045086Y-34400000D01*
X114116515Y-34114286D01*
X114187943Y-33971429D01*
X114259372Y-33900000D01*
X114402229Y-33828571D01*
X115830800Y-33828571D02*
X115973657Y-33828571D01*
X116116514Y-33900000D01*
X116187943Y-33971429D01*
X116259372Y-34114286D01*
X116330800Y-34400000D01*
X116330800Y-34757143D01*
X116259372Y-35042857D01*
X116187943Y-35185714D01*
X116116514Y-35257143D01*
X115973657Y-35328571D01*
X115830800Y-35328571D01*
X115687943Y-35257143D01*
X115616514Y-35185714D01*
X115545086Y-35042857D01*
X115473657Y-34757143D01*
X115473657Y-34400000D01*
X115545086Y-34114286D01*
X115616514Y-33971429D01*
X115687943Y-33900000D01*
X115830800Y-33828571D01*
X118116514Y-35328571D02*
X118116514Y-34328571D01*
X118116514Y-34471429D02*
X118187942Y-34400000D01*
X118330800Y-34328571D01*
X118545085Y-34328571D01*
X118687942Y-34400000D01*
X118759371Y-34542857D01*
X118759371Y-35328571D01*
X118759371Y-34542857D02*
X118830800Y-34400000D01*
X118973657Y-34328571D01*
X119187942Y-34328571D01*
X119330800Y-34400000D01*
X119402228Y-34542857D01*
X119402228Y-35328571D01*
X120116514Y-35328571D02*
X120116514Y-34328571D01*
X120116514Y-34471429D02*
X120187942Y-34400000D01*
X120330800Y-34328571D01*
X120545085Y-34328571D01*
X120687942Y-34400000D01*
X120759371Y-34542857D01*
X120759371Y-35328571D01*
X120759371Y-34542857D02*
X120830800Y-34400000D01*
X120973657Y-34328571D01*
X121187942Y-34328571D01*
X121330800Y-34400000D01*
X121402228Y-34542857D01*
X121402228Y-35328571D01*
X136509372Y-36000000D02*
X94009372Y-36000000D01*
X136509372Y-44258853D02*
X136509372Y-33300000D01*
X94009372Y-44258853D02*
X94009372Y-33300000D01*
X94009372Y-36000000D02*
X95135876Y-35413579D01*
X94009372Y-36000000D02*
X95135876Y-36586421D01*
X136509372Y-36000000D02*
X135382868Y-35413579D01*
X136509372Y-36000000D02*
X135382868Y-36586421D01*
M02*
